<?xml version="1.0" encoding="UTF-8"?>
<svg xmlns="http://www.w3.org/2000/svg" xmlns:xlink="http://www.w3.org/1999/xlink" version="1.1" viewBox="0 0 136 40">
  <defs>
    <style>
      .cls-1 {
        fill: #fff;
      }
    </style>
  </defs>
  <!-- Generator: Adobe Illustrator 28.7.1, SVG Export Plug-In . SVG Version: 1.2.0 Build 142)  -->
  <g>
    <g id="Layer_1">
      <path d="M0,8C0,5.2,0,3.8.5,2.7c.5-.9,1.2-1.7,2.2-2.2,1.1-.5,2.5-.5,5.3-.5h120c2.8,0,4.2,0,5.3.5.9.5,1.7,1.2,2.2,2.2.5,1.1.5,2.5.5,5.3v24c0,2.8,0,4.2-.5,5.3-.5.9-1.2,1.7-2.2,2.2-1.1.5-2.5.5-5.3.5H8c-2.8,0-4.2,0-5.3-.5-.9-.5-1.7-1.2-2.2-2.2-.5-1.1-.5-2.5-.5-5.3V8Z"/>
      <path class="cls-1" d="M8.2,12h.7l.7-1.8h3l.7,1.8h.7l-2.6-6.3h-.6l-2.6,6.3ZM9.9,9.6l1.2-3,1.2,3h-2.4Z"/>
      <path class="cls-1" d="M15.9,12h.6l1.8-4.3h-.7l-1.4,3.5-1.4-3.5h-.7l1.8,4.3Z"/>
      <path class="cls-1" d="M21.8,12h.6v-2.7c0-.9-.7-1.7-1.7-1.7s-1.6.8-1.6.8l.4.4s.5-.6,1.2-.6,1.1.4,1.1,1.1l-1.7.3c-.8.1-1.3.6-1.3,1.3s.6,1.3,1.5,1.3,1.4-.7,1.4-.7v.6ZM21.8,10.1c0,.9-.6,1.4-1.4,1.4s-.9-.3-.9-.7.3-.7.8-.8l1.5-.3v.3Z"/>
      <path class="cls-1" d="M23.8,6.2c0,.2.2.4.4.4s.4-.2.4-.4-.2-.4-.4-.4-.4.2-.4.4ZM23.8,12h.6v-4.3h-.6v4.3Z"/>
      <path class="cls-1" d="M26,12h.6v-6.3h-.6v6.3Z"/>
      <path class="cls-1" d="M30.7,12h.6v-2.7c0-.9-.7-1.7-1.7-1.7s-1.6.8-1.6.8l.4.4s.5-.6,1.2-.6,1.1.4,1.1,1.1l-1.7.3c-.8.1-1.3.6-1.3,1.3s.6,1.3,1.5,1.3,1.4-.7,1.4-.7v.6ZM30.7,10.1c0,.9-.6,1.4-1.4,1.4s-.9-.3-.9-.7.3-.7.8-.8l1.5-.3v.3Z"/>
      <path class="cls-1" d="M32.8,12h.6v-.6s.5.7,1.5.7,2.1-.9,2.1-2.2-.9-2.3-2.1-2.3-1.5.7-1.5.7v-2.6h-.6v6.3ZM34.9,11.5c-.8,0-1.5-.7-1.5-1.7s.7-1.7,1.5-1.7,1.5.7,1.5,1.7-.7,1.7-1.5,1.7Z"/>
      <path class="cls-1" d="M38.2,12h.6v-6.3h-.6v6.3Z"/>
      <path class="cls-1" d="M43.6,10.8s-.5.7-1.4.7-1.5-.7-1.5-1.4h3.5s0-.1,0-.3c0-1.3-.9-2.2-2.1-2.2s-2.1,1-2.1,2.3,1,2.2,2.2,2.2,1.8-.9,1.8-.9l-.4-.4ZM40.6,9.5c0-.7.7-1.3,1.5-1.3s1.3.6,1.4,1.3h-2.9Z"/>
      <path class="cls-1" d="M49.1,12.1c1.2,0,2.2-1,2.2-2.2s-1-2.3-2.2-2.3-2.2,1-2.2,2.3,1,2.2,2.2,2.2ZM49.1,11.5c-.9,0-1.6-.7-1.6-1.7s.7-1.7,1.6-1.7,1.6.7,1.6,1.7-.7,1.7-1.6,1.7Z"/>
      <path class="cls-1" d="M52.4,12h.6v-2.4c0-.9.6-1.4,1.3-1.4s1.2.5,1.2,1.3v2.6h.6v-2.6c0-1.1-.7-1.8-1.8-1.8s-1.4.7-1.4.7v-.6h-.6v4.3Z"/>
      <image width="290" height="218" transform="translate(16.2 -22.7) scale(.5 .4)" xlink:href="stirr (1).png"/>
    </g>
  </g>
</svg>