<svg width="137" height="40" viewBox="0 0 137 40" fill="none" xmlns="http://www.w3.org/2000/svg">
<path d="M132.034 40H5.96057C3.18101 40 0.99707 37.8 0.99707 35V5C0.99707 2.2 3.18101 0 5.96057 0H132.034C134.813 0 136.997 2.2 136.997 5V35C136.997 37.8 134.813 40 132.034 40Z" fill="black"/>
<path fill-rule="evenodd" clip-rule="evenodd" d="M62.8723 12.4C62.9719 12.6 63.2706 12.7 63.5694 12.7C63.7686 12.7 63.8682 12.7 64.0674 12.6L64.167 12.5V12.4V12.1V12H64.0674H63.9678H63.8682C63.7686 12 63.669 12 63.5694 11.9C63.4698 11.8 63.4698 11.7 63.4698 11.6V6.2C63.4698 6.1 63.3702 6 63.2706 6H62.7727C62.6731 6 62.5735 6.1 62.5735 6.2V11.6C62.5735 11.9056 62.6897 12.0944 62.789 12.2557C62.8197 12.3056 62.8488 12.3528 62.8723 12.4ZM60.8805 7.2998C60.6813 7.2998 60.5818 7.2998 60.4822 7.1998C60.3826 7.0998 60.3826 6.9998 60.3826 6.7998C60.3826 6.5998 60.3826 6.49981 60.4822 6.39981C60.5818 6.29981 60.6813 6.2998 60.8805 6.2998C61.0797 6.2998 61.1793 6.29981 61.2789 6.39981C61.3785 6.49981 61.3785 6.5998 61.3785 6.7998C61.3785 6.9998 61.3785 7.0998 61.2789 7.1998C61.1793 7.2998 61.0797 7.2998 60.8805 7.2998ZM60.6813 12.6998C60.5818 12.6998 60.4822 12.5998 60.4822 12.4998V8.2998C60.4822 8.1998 60.5818 8.0998 60.6813 8.0998H61.1793C61.2789 8.0998 61.3785 8.1998 61.3785 8.2998V12.4998C61.3785 12.5998 61.2789 12.6998 61.1793 12.6998H60.6813ZM47.037 12.4004C47.2362 12.7004 47.6346 12.8004 48.033 12.8004C48.2694 12.8004 48.4434 12.7378 48.6538 12.6621L48.6539 12.6621L48.654 12.662C48.7094 12.6421 48.7674 12.6212 48.8297 12.6004C48.8767 12.5768 48.9293 12.5532 48.9848 12.5283C49.1644 12.4476 49.3747 12.3532 49.5268 12.2004V12.5004C49.5268 12.6004 49.6264 12.7004 49.726 12.7004H50.1244C50.224 12.7004 50.3236 12.6004 50.3236 12.5004V9.40039C50.3236 8.90039 50.224 8.60039 50.0248 8.30039C49.726 8.00039 49.3277 7.90039 48.7301 7.90039C48.4313 7.90039 48.1325 7.90039 47.8338 8.00039C47.7714 8.02125 47.7134 8.04211 47.658 8.06207L47.6579 8.06209C47.4475 8.13778 47.2735 8.20039 47.037 8.20039L46.9374 8.30039V8.50039V8.80039C46.9374 8.90039 46.9375 9.00039 47.037 9.00039C47.0868 9.00039 47.1366 8.97539 47.1864 8.95039C47.2362 8.92539 47.286 8.90039 47.3358 8.90039C47.7342 8.80039 48.1325 8.70039 48.5309 8.70039C48.9293 8.70039 49.2281 8.80039 49.3277 8.90039C49.4272 9.00039 49.5268 9.30039 49.5268 9.60039V10.2004C49.1285 10.1004 48.7301 10.0004 48.4313 10.0004C47.8338 10.0004 47.4354 10.1004 47.1366 10.4004C46.8379 10.6004 46.6387 11.0004 46.6387 11.4004C46.6387 11.8004 46.7383 12.2004 47.037 12.4004ZM48.2321 12.1004C48.1326 12.1004 48.033 12.0754 47.9334 12.0504C47.8338 12.0254 47.7342 12.0004 47.6346 12.0004C47.535 11.9004 47.4354 11.7004 47.4354 11.5004C47.4354 11.0004 47.7342 10.7004 48.4313 10.7004C48.8297 10.7004 49.1285 10.7004 49.4272 10.8004V11.7004L48.8297 12.0004C48.6305 12.1004 48.4313 12.1004 48.2321 12.1004ZM102.311 26.4998C102.709 26.8998 103.406 27.0998 104.302 27.0998C104.8 27.0998 105.298 26.9998 105.796 26.7998C105.872 26.7616 105.934 26.738 105.987 26.7178C106.072 26.6852 106.133 26.6616 106.195 26.5998C106.294 26.4998 106.294 26.3998 106.294 26.1998V25.5998C106.294 25.3998 106.195 25.2998 105.996 25.2998C105.954 25.2998 105.913 25.317 105.865 25.3371C105.796 25.3655 105.714 25.3998 105.597 25.3998C105.498 25.4998 105.298 25.4998 105 25.4998C104.502 25.4998 104.203 25.4998 104.004 25.2998C103.805 25.1998 103.705 24.8998 103.705 24.4998V19.7998H105.796C106.095 19.7998 106.195 19.6998 106.195 19.3998V18.5998C106.195 18.2998 106.095 18.1998 105.796 18.1998H103.705V16.1998C103.705 15.8998 103.605 15.7998 103.307 15.7998H102.41C102.311 15.7998 102.211 15.7998 102.111 15.8998C102.111 15.9498 102.087 15.9998 102.062 16.0498C102.037 16.0998 102.012 16.1498 102.012 16.1998L101.713 18.2998L100.518 18.4998C100.319 18.4998 100.319 18.4998 100.219 18.5998C100.12 18.5998 100.12 18.7998 100.12 18.8998V19.3998C100.12 19.6998 100.219 19.7998 100.518 19.7998H101.614V24.5998C101.614 25.3998 101.912 26.0998 102.311 26.4998ZM18.9523 27.0998H17.3588C17.1596 27.0998 17.0601 26.9998 17.0601 26.7998V18.2998C17.0601 18.0998 17.1596 17.9998 17.3588 17.9998H18.8527C19.0519 17.9998 19.1515 18.0998 19.1515 18.2998V19.3998C19.5499 18.2998 20.3466 17.7998 21.3425 17.7998C22.3384 17.7998 23.0356 18.2998 23.4339 19.3998C23.8323 18.2998 24.7286 17.7998 25.7245 17.7998C26.4217 17.7998 27.1188 18.0998 27.6168 18.6998C28.0432 19.2992 28.0314 20.1185 28.0193 20.9695V20.9696V20.9697V20.9698V20.97V20.9701V20.9702V20.9704V20.9705V20.9706V20.9708V20.9709V20.9711V20.9712V20.9714V20.9715V20.9717V20.9718V20.972V20.9721V20.9723V20.9724V20.9726V20.9728C28.0172 21.1145 28.0152 21.2572 28.0152 21.3998V26.6998C28.0152 26.8998 27.9156 26.9998 27.7164 26.9998H26.1229C25.9237 26.9998 25.8241 26.8998 25.8241 26.6998V22.1998V20.5998C25.7245 19.9998 25.3262 19.8998 24.8282 19.8998C24.4299 19.8998 24.0315 20.1998 23.8323 20.5998C23.6331 20.9998 23.6331 21.6998 23.6331 22.1998V26.6998C23.6331 26.8998 23.5335 26.9998 23.3343 26.9998H21.7409C21.5417 26.9998 21.4421 26.8998 21.4421 26.6998V22.1998C21.4421 22.0911 21.445 21.9752 21.448 21.8553C21.4699 20.9821 21.497 19.8998 20.4462 19.8998C19.3341 19.8998 19.3431 21.112 19.3497 22.0056C19.3502 22.0723 19.3507 22.1373 19.3507 22.1998V26.6998C19.2511 26.9998 19.1515 27.0998 18.9523 27.0998ZM38.6713 18.3V19.5C38.6713 19.7 38.7709 19.8 39.0697 19.9H41.8583L38.5717 24.6C38.3726 24.9 38.3726 25.2 38.3726 25.4V26.6C38.3726 26.8 38.5717 27 38.7709 26.9C40.5636 25.9 42.7546 26 44.4477 26.9C44.6468 27 44.846 26.8 44.846 26.6V25.3C44.846 25.1 44.7464 24.9 44.5473 24.8C43.5513 24.2 42.4558 24.1 41.4599 24.1L44.2485 20.1C44.5473 19.7 44.6468 19.5 44.6468 19.3V18.3C44.6468 18.1 44.5473 18 44.3481 18H38.9701C38.7709 18 38.6713 18.1 38.6713 18.3ZM42.2566 28.9002C41.9 28.4527 40.107 28.6461 39.0205 28.7633L39.0201 28.7634C38.893 28.7771 38.7756 28.7898 38.6713 28.8002C38.3725 28.8002 38.3725 28.6002 38.5717 28.4002C40.3643 27.2002 43.2525 27.5002 43.5513 27.9002C43.85 28.3002 43.4517 31.2002 41.7586 32.6002C41.4598 32.8002 41.2607 32.7002 41.3603 32.4002C41.7586 31.5002 42.6549 29.4002 42.2566 28.9002ZM40.9621 30.2999C37.8747 32.5999 33.3931 33.7999 29.509 33.7999C24.131 33.7999 19.251 31.7999 15.5661 28.4999C15.2674 28.1999 15.5661 27.8999 15.8649 28.0999C19.8486 30.3999 24.7286 31.7999 29.8078 31.7999C33.1939 31.7999 36.9784 31.0999 40.4641 29.5999C40.9621 29.3999 41.46 29.9999 40.9621 30.2999ZM53.1122 22.6994C53.1122 19.9994 51.7179 17.8994 49.3277 17.8994C46.9375 17.8994 45.6428 19.8994 45.6428 22.5994C45.6428 25.1994 46.9375 27.2994 49.3277 27.2994C51.6183 27.2994 53.1122 25.2994 53.1122 22.6994ZM48.033 22.2994C48.033 21.2994 48.1326 19.5994 49.3277 19.5994C49.9253 19.5994 50.224 19.7994 50.4232 20.3994C50.6224 20.9994 50.6224 21.8994 50.6224 22.5994C50.6224 23.6994 50.6224 25.4994 49.3277 25.4994C48.033 25.4994 48.033 23.2994 48.033 22.2994ZM56.2992 27.0998H54.7058C54.5066 27.0998 54.407 26.9998 54.407 26.7998V18.2998C54.407 18.0998 54.6062 17.9998 54.7058 17.9998H56.1996C56.2992 17.9998 56.4984 18.0998 56.4984 18.1998V19.4998C56.9964 18.2998 57.5939 17.7998 58.6894 17.7998C59.3866 17.7998 60.1833 18.0998 60.5817 18.7998C60.98 19.4998 60.98 20.5998 60.98 21.3998V26.6998C60.98 26.7998 60.7809 26.9998 60.6813 26.9998H58.9882C58.789 26.9998 58.6894 26.8998 58.6894 26.6998V22.0998C58.6894 22.0331 58.69 21.9636 58.6906 21.8921V21.8919V21.8917V21.8914V21.8912V21.891V21.8907V21.8905C58.6976 20.9984 58.7072 19.7998 57.6935 19.7998C57.2951 19.7998 56.8968 20.0998 56.6976 20.4998C56.4984 20.9998 56.3988 21.4998 56.3988 22.0998V26.6998C56.598 26.9998 56.3988 27.0998 56.2992 27.0998ZM34.0903 24.8998C34.389 24.2998 34.389 23.6998 34.389 23.0998H34.4886V22.6998C33.2935 22.6998 31.9988 22.9998 31.9988 24.3998C31.9988 25.0998 32.3972 25.5998 32.9947 25.5998C33.3931 25.5998 33.7915 25.3998 34.0903 24.8998ZM35.5841 27.0998C35.6837 27.1998 35.8829 27.1998 35.9825 27.0998C36.3809 26.7998 36.9784 26.2998 37.3768 25.8998C37.4764 25.7998 37.4764 25.6998 37.3768 25.4998C37.3466 25.4594 37.3164 25.42 37.2865 25.381C37.0207 25.0341 36.7792 24.719 36.7792 23.9998V21.3998C36.7792 21.2886 36.7803 21.1784 36.7813 21.0694V21.0694V21.0694C36.7902 20.1006 36.7983 19.229 36.0821 18.5998C35.4845 17.9998 34.389 17.7998 33.5923 17.7998C31.9988 17.7998 30.3058 18.3998 29.9074 20.2998C29.8078 20.4998 30.007 20.5998 30.1066 20.5998L31.7001 20.7998C31.8992 20.7998 31.9988 20.5998 31.9988 20.4998C32.0984 19.7998 32.696 19.4998 33.2935 19.4998C33.5923 19.4998 33.9907 19.5998 34.1898 19.8998C34.389 20.1998 34.389 20.6998 34.389 21.0998V21.2998L34.2181 21.3168C33.2588 21.4121 32.1473 21.5224 31.3017 21.8998C30.2062 22.3998 29.509 23.2998 29.509 24.5998C29.509 26.2998 30.6045 27.1998 31.9988 27.1998C33.1939 27.1998 33.7915 26.8998 34.6878 25.9998C34.7579 26.0936 34.8169 26.1764 34.8728 26.2546C35.0552 26.5101 35.2029 26.717 35.5841 27.0998ZM12.8771 23.0994C12.8771 23.6994 12.8771 24.2994 12.5783 24.8994C12.2795 25.3994 11.8812 25.5994 11.4828 25.5994C10.8852 25.5994 10.4869 25.0994 10.4869 24.3994C10.4869 22.9994 11.7816 22.6994 12.9767 22.6994V23.0994H12.8771ZM14.4705 27.0994C14.3709 27.1994 14.1718 27.1994 14.0722 27.0994C13.691 26.7166 13.5432 26.5097 13.3608 26.2542C13.305 26.176 13.2459 26.0932 13.1758 25.9994C12.2795 26.8994 11.682 27.1994 10.4869 27.1994C9.09258 27.1994 7.99707 26.2994 7.99707 24.5994C7.99707 23.2994 8.69421 22.3994 9.78972 21.8994C10.6353 21.5221 11.7468 21.4117 12.7061 21.3165L12.8771 21.2994V21.0994C12.8771 20.6994 12.8771 20.1994 12.6779 19.8994C12.4787 19.5994 12.0803 19.4994 11.7816 19.4994C11.184 19.4994 10.5865 19.7994 10.4869 20.4994C10.4869 20.5994 10.3873 20.7994 10.1881 20.7994L8.49503 20.6994C8.39544 20.6994 8.19625 20.5994 8.29585 20.3994C8.69421 18.4994 10.3873 17.8994 11.9807 17.8994C12.7775 17.8994 13.873 18.0994 14.4705 18.6994C15.1867 19.3286 15.1787 20.2003 15.1697 21.169C15.1687 21.278 15.1677 21.3882 15.1677 21.4994V24.0994C15.1677 24.8186 15.4091 25.1337 15.675 25.4806L15.6751 25.4807L15.6751 25.4808L15.6756 25.4814L15.6756 25.4815C15.7053 25.5202 15.7353 25.5593 15.7652 25.5994C15.8648 25.7994 15.8648 25.8994 15.7652 25.9994C15.4665 26.2994 14.8689 26.7994 14.4705 27.0994ZM65.7604 26.5002C66.2583 27.0002 66.9555 27.2002 67.7522 27.2002C68.2502 27.2002 68.7481 27.1002 69.2461 26.9002C69.744 26.7002 70.1424 26.4002 70.5408 26.1002L70.74 27.0002C70.74 27.2002 70.8396 27.3002 71.1383 27.3002H72.0347C72.3334 27.3002 72.433 27.2002 72.433 26.9002V21.1002C72.433 20.1002 72.1343 19.4002 71.6363 18.9002C71.1383 18.4002 70.242 18.2002 69.1465 18.2002C68.051 18.2002 67.0551 18.4002 66.1587 18.7002C66.0827 18.7384 66.0066 18.762 65.9416 18.7822C65.8365 18.8148 65.7604 18.8384 65.7604 18.9002C65.6608 18.9002 65.6608 19.0002 65.6608 19.2002V19.8002C65.6608 20.0002 65.7604 20.1002 65.86 20.1002C65.9098 20.1002 65.9596 20.0752 66.0094 20.0502C66.0592 20.0252 66.1089 20.0002 66.1587 20.0002C66.5571 19.9002 66.9555 19.8002 67.4534 19.7002C67.9514 19.6002 68.3498 19.6002 68.7481 19.6002C69.3457 19.6002 69.744 19.7002 70.0428 19.9002C70.3416 20.1002 70.4412 20.5002 70.4412 21.1002V22.1002C69.744 21.9002 69.0469 21.8002 68.4493 21.8002C67.3538 21.8002 66.5571 22.1002 65.9596 22.6002C65.362 23.1002 65.0632 23.8002 65.0632 24.6002C65.0632 25.4002 65.2624 26.0002 65.7604 26.5002ZM69.4453 25.5002C69.0469 25.6002 68.6485 25.7002 68.3498 25.7002C67.9514 25.7002 67.553 25.6002 67.3538 25.4002C67.1547 25.2002 67.0551 24.9002 67.0551 24.5002C67.0551 23.6002 67.6526 23.1002 68.8477 23.1002C69.2461 23.1002 69.8436 23.1002 70.5408 23.2002V24.9002C70.1424 25.2002 69.8436 25.4002 69.4453 25.5002ZM74.5246 30.4998C74.2258 30.4998 74.1262 30.3998 74.1262 30.0998V18.4998C74.1262 18.1998 74.2258 18.0998 74.5246 18.0998H75.4209C75.7197 18.0998 75.8193 18.1998 75.8193 18.3998L75.9189 18.8998C76.3172 18.4998 76.7156 18.2998 77.2136 18.0998C77.7115 17.8998 78.2095 17.7998 78.7074 17.7998C79.803 17.7998 80.6993 18.1998 81.2968 18.9998C81.8944 19.7998 82.2927 20.8998 82.2927 22.2998C82.2927 23.2998 82.0936 24.0998 81.7948 24.7998C81.496 25.4998 80.9981 26.0998 80.5001 26.3998L80.4567 26.426L80.3865 26.4687L80.3842 26.4701L80.3838 26.4704L80.3808 26.4722L80.3806 26.4723C79.9074 26.7603 79.3497 27.0998 78.7074 27.0998C78.2821 27.0998 77.9295 27.0269 77.5254 26.9433C77.4563 26.929 77.3858 26.9144 77.3132 26.8998C76.9148 26.6998 76.5164 26.4998 76.1181 26.1998V30.0998C76.1181 30.3998 76.0185 30.4998 75.7197 30.4998H74.5246ZM78.2095 25.4998C78.9066 25.4998 79.5042 25.2998 79.803 24.6998C80.2013 24.1998 80.3009 23.3998 80.3009 22.3998C80.3009 21.3998 80.1017 20.5998 79.803 20.1998C79.5042 19.7998 78.9066 19.4998 78.2095 19.4998C77.5123 19.4998 76.8152 19.6998 76.1181 20.1998V24.8998C76.8152 25.2998 77.5123 25.4998 78.2095 25.4998ZM83.886 30.0998C83.886 30.3998 83.9856 30.4998 84.2844 30.4998H85.4795C85.7782 30.4998 85.8778 30.3998 85.8778 30.0998V26.1998C86.2762 26.4998 86.6746 26.6998 87.0729 26.8998L87.176 26.9208L87.2851 26.9433C87.6893 27.0269 88.0419 27.0998 88.4672 27.0998C89.1095 27.0998 89.6672 26.7603 90.1404 26.4723L90.1428 26.4708L90.2037 26.4338L90.2599 26.3998C90.7578 26.0998 91.2558 25.4998 91.5546 24.7998C91.8533 24.0998 92.0525 23.2998 92.0525 22.2998C92.0525 20.8998 91.6542 19.7998 91.0566 18.9998C90.4591 18.1998 89.5627 17.7998 88.4672 17.7998C87.9693 17.7998 87.4713 17.8998 86.9733 18.0998C86.4754 18.2998 86.077 18.4998 85.6786 18.8998L85.5791 18.3998C85.5791 18.1998 85.4795 18.0998 85.1807 18.0998H84.2844C83.9856 18.0998 83.886 18.1998 83.886 18.4998V30.0998ZM89.5627 24.6998C89.2639 25.2998 88.6664 25.4998 87.9693 25.4998C87.2721 25.4998 86.575 25.2998 85.8778 24.8998V20.1998C86.575 19.6998 87.2721 19.4998 87.9693 19.4998C88.6664 19.4998 89.2639 19.7998 89.5627 20.1998C89.8615 20.5998 90.0607 21.3998 90.0607 22.3998C90.0607 23.3998 89.9611 24.1998 89.5627 24.6998ZM95.9367 27.1994C95.0404 27.1994 94.2437 27.0994 93.4469 26.7994C93.3709 26.7612 93.3093 26.7376 93.2567 26.7174C93.1717 26.6848 93.1101 26.6612 93.0486 26.5994C92.949 26.4994 92.949 26.3994 92.949 26.1994V25.5994C92.949 25.3994 93.0486 25.2994 93.1482 25.2994C93.2477 25.2994 93.3473 25.2994 93.6461 25.3994C94.4428 25.5994 95.14 25.6994 95.8371 25.6994C96.4347 25.6994 96.8331 25.5994 97.1318 25.3994C97.4306 25.1994 97.5302 24.8994 97.5302 24.5994C97.5302 24.2994 97.4306 24.0994 97.331 23.9994C97.1852 23.853 96.986 23.7602 96.7335 23.6425C96.641 23.5994 96.5414 23.553 96.4347 23.4994L95.0404 22.8994C93.7457 22.3994 93.1482 21.5994 93.1482 20.4994C93.1482 19.6994 93.4469 19.0994 94.0445 18.5994C94.642 18.0994 95.4388 17.8994 96.4347 17.8994C97.1318 17.8994 97.829 17.9994 98.6257 18.2994C98.6841 18.3287 98.7338 18.3494 98.7751 18.3666C98.8747 18.408 98.9245 18.4287 98.9245 18.4994C99.0241 18.5994 99.0241 18.6994 99.0241 18.8994V19.4994C99.0241 19.5994 99.0241 19.6994 98.9245 19.7994C98.8249 19.8994 98.8249 19.8994 98.7253 19.8994C98.6257 19.8994 98.5261 19.8994 98.3269 19.7994C97.6298 19.5994 97.0322 19.4994 96.5343 19.4994C96.0363 19.4994 95.6379 19.5994 95.3392 19.6994C95.14 19.8994 94.9408 20.0994 94.9408 20.3994C94.9408 20.6994 95.0404 20.8994 95.2396 20.9994C95.4126 21.1731 95.6607 21.2714 96.0492 21.4253C96.108 21.4486 96.17 21.4731 96.2355 21.4994L97.5302 21.9994C98.2273 22.2994 98.7253 22.5994 99.0241 22.8994C99.3229 23.2994 99.522 23.6994 99.522 24.2994C99.522 25.1994 99.2233 25.7994 98.6257 26.2994C97.9286 26.8994 97.0322 27.1994 95.9367 27.1994ZM110.975 27.2C109.68 27.2 108.585 26.8 107.888 26C107.191 25.2 106.792 24 106.792 22.6C106.792 21.1 107.191 20 107.888 19.2C108.585 18.4 109.68 18 110.975 18C112.27 18 113.365 18.4 114.062 19.2C114.76 20 115.158 21.2 115.158 22.6C115.158 24.1 114.76 25.2 114.062 26C113.266 26.8 112.27 27.2 110.975 27.2ZM110.975 25.6C112.369 25.6 113.166 24.6 113.166 22.6C113.166 20.6 112.469 19.6 110.975 19.6C109.581 19.6 108.784 20.6 108.784 22.6C108.784 24.6 109.481 25.6 110.975 25.6ZM116.552 26.4996C116.552 26.7996 116.652 26.8996 116.951 26.8996V26.9996H118.146C118.444 26.9996 118.544 26.8996 118.544 26.5996V20.5996C119.241 20.0996 120.038 19.8996 120.835 19.8996H121.233H121.532C121.731 19.8996 121.831 19.6996 121.831 19.4996V18.5996C121.831 18.4825 121.796 18.3996 121.768 18.331C121.748 18.2825 121.731 18.241 121.731 18.1996C121.731 18.1996 121.631 18.0996 121.532 18.0996H121.133H121.034C120.536 18.0996 120.138 18.1996 119.739 18.3996C119.341 18.5996 118.942 18.9996 118.444 19.4996L118.245 18.4996C118.245 18.2996 118.245 18.1996 118.146 18.1996C118.146 18.0996 118.046 18.0996 117.847 18.0996H116.951C116.652 18.0996 116.552 18.1996 116.552 18.4996V26.4996ZM126.711 27.1994C125.316 27.1994 124.221 26.7994 123.424 25.9994C122.727 25.1994 122.329 24.0994 122.329 22.5994C122.329 21.0994 122.727 19.9994 123.424 19.0994C124.121 18.2994 125.117 17.8994 126.511 17.8994C127.607 17.8994 128.503 18.1994 129.101 18.7994C129.698 19.3994 129.997 20.2994 129.997 21.3994C129.997 21.7994 129.997 22.1994 129.898 22.5994C129.898 22.6494 129.873 22.6994 129.848 22.7494C129.823 22.7994 129.798 22.8494 129.798 22.8994C129.741 22.957 129.716 22.9814 129.687 22.9918C129.665 22.9994 129.641 22.9994 129.599 22.9994H124.32C124.32 23.8994 124.619 24.4994 125.018 24.8994C125.516 25.2994 126.213 25.4994 127.109 25.4994C127.806 25.4994 128.503 25.3994 129.3 25.1994C129.4 25.1994 129.499 25.1994 129.499 25.0994H129.599C129.798 25.0994 129.898 25.1994 129.898 25.3994V26.0994C129.898 26.2994 129.898 26.3994 129.798 26.4994C129.736 26.5612 129.675 26.5848 129.59 26.6174C129.537 26.6376 129.476 26.6612 129.4 26.6994C128.603 26.9994 127.707 27.1994 126.711 27.1994ZM128.205 21.6994V21.5994C128.205 20.8994 128.005 20.3994 127.707 19.9994C127.408 19.5994 127.009 19.3994 126.412 19.3994C125.814 19.3994 125.316 19.5994 124.918 19.9994C124.52 20.3994 124.32 20.9994 124.221 21.6994H128.205ZM52.8134 12.6996H52.6142C52.6142 12.6996 52.5146 12.5996 52.5146 12.4996L50.9211 8.49961V8.39961V8.29961C50.9211 8.19961 50.9211 8.19961 51.0207 8.19961H51.5187H51.7179C51.7179 8.19961 51.8175 8.29961 51.8175 8.39961L53.0126 11.8996L54.3073 8.29961C54.3073 8.25708 54.3073 8.23263 54.3149 8.21089C54.3253 8.18152 54.3496 8.15708 54.4069 8.09961H54.606H55.104C55.2036 8.09961 55.2036 8.09961 55.2036 8.19961V8.29961V8.39961L53.6101 12.3996C53.6101 12.4996 53.5105 12.5996 53.5105 12.5996H53.3113H52.8134V12.6996ZM56.0004 12.4004C56.1996 12.7004 56.598 12.8004 56.9963 12.8004C57.1955 12.8004 57.4943 12.7004 57.7931 12.6004C57.8401 12.5768 57.8927 12.5532 57.9482 12.5283C58.1278 12.4476 58.3381 12.3532 58.4902 12.2004V12.5004C58.4902 12.6004 58.5898 12.7004 58.6894 12.7004H59.0878C59.1874 12.7004 59.2869 12.6004 59.2869 12.5004V9.40039C59.2869 8.90039 59.0878 8.60039 58.789 8.30039C58.4902 8.00039 58.0918 7.90039 57.4943 7.90039C57.1955 7.90039 56.8967 7.90039 56.598 8.00039C56.2992 8.00039 56.1 8.10039 55.9008 8.20039L55.8012 8.30039V8.50039V8.80039C55.8012 8.90039 55.8012 9.00039 55.9008 9.00039C55.9506 9.00039 56.0004 8.97539 56.0502 8.95039C56.1 8.92539 56.1498 8.90039 56.1996 8.90039C56.598 8.80039 56.9963 8.70039 57.3947 8.70039C57.7931 8.70039 58.0919 8.80039 58.1914 8.90039C58.291 9.00039 58.3906 9.30039 58.3906 9.60039V10.2004L58.3906 10.2004C57.9922 10.1004 57.5939 10.0004 57.2951 10.0004C56.7972 10.0004 56.2992 10.1004 56.1 10.4004C55.8012 10.6004 55.6021 11.0004 55.6021 11.4004C55.6021 11.8004 55.7016 12.2004 56.0004 12.4004ZM57.1955 12.1004C57.031 12.1004 56.9269 12.0701 56.8333 12.0428C56.7569 12.0206 56.6875 12.0004 56.598 12.0004C56.4984 11.9004 56.3988 11.7004 56.3988 11.5004C56.3988 11.0004 56.6976 10.7004 57.3947 10.7004C57.7931 10.7004 58.0918 10.7004 58.3906 10.8004V11.7004L57.7931 12.0004C57.5939 12.1004 57.3947 12.1004 57.1955 12.1004ZM66.1587 12.8004C65.7603 12.8004 65.362 12.7004 65.1628 12.4004C64.864 12.2004 64.7644 11.8004 64.7644 11.4004C64.7644 11.0004 64.9636 10.6004 65.2624 10.4004C65.5611 10.1004 65.9595 10.0004 66.5571 10.0004C66.8558 10.0004 67.2542 10.1004 67.6525 10.2004L67.6526 10.2004V9.60039C67.6526 9.30039 67.553 9.00039 67.4534 8.90039C67.3538 8.80039 67.055 8.70039 66.6567 8.70039C66.2583 8.70039 65.8599 8.80039 65.4615 8.90039C65.4118 8.90039 65.362 8.92539 65.3122 8.95039C65.2624 8.97539 65.2126 9.00039 65.1628 9.00039C65.0632 9.00039 65.0632 8.90039 65.0632 8.80039V8.50039V8.30039L65.1628 8.20039C65.362 8.10039 65.5611 8.00039 65.8599 8.00039C66.1587 7.90039 66.4575 7.90039 66.7562 7.90039C67.3538 7.90039 67.7522 8.00039 68.0509 8.30039C68.3497 8.50039 68.4493 8.90039 68.4493 9.40039V12.5004C68.4493 12.6004 68.3497 12.7004 68.2501 12.7004H67.8517C67.7522 12.7004 67.6526 12.6004 67.6526 12.5004V12.2004C67.5004 12.3532 67.2901 12.4476 67.1105 12.5283L67.1104 12.5283L67.1103 12.5284C67.0549 12.5532 67.0024 12.5768 66.9554 12.6004C66.6566 12.7004 66.3579 12.8004 66.1587 12.8004ZM66.3579 12.1004C66.5571 12.1004 66.7562 12.1004 66.9554 12.0004L67.553 11.7004V10.8004C67.2542 10.7004 66.9554 10.7004 66.5571 10.7004C65.8599 10.7004 65.5611 11.0004 65.5611 11.5004C65.5611 11.7004 65.6607 11.9004 65.7603 12.0004C65.8499 12.0004 65.9193 12.0206 65.9957 12.0428C66.0893 12.0701 66.1934 12.1004 66.3579 12.1004ZM70.4412 12.2C70.8396 12.6 71.238 12.8 71.8355 12.8C72.4331 12.8 72.931 12.5 73.3294 12C73.6282 11.5 73.8274 10.9 73.8274 10.2C73.8274 9.5 73.7278 8.9 73.3294 8.5C72.931 8.1 72.5327 7.9 71.9351 7.9C71.3376 7.9 70.9392 8.1 70.4412 8.5V6.2C70.4412 6.1 70.3417 6 70.2421 6H69.7441C69.6445 6 69.5449 6.1 69.5449 6.2V12.5C69.5449 12.6 69.6445 12.7 69.7441 12.7H70.1425C70.2421 12.7 70.3417 12.6 70.3417 12.5L70.4412 12.2ZM72.8315 10.3C72.8315 11.4 72.4331 12 71.6363 12C71.238 12 70.8396 11.9 70.4412 11.5V9C70.8396 8.7 71.238 8.6 71.6363 8.6C72.0347 8.6 72.3335 8.7 72.5327 9C72.7319 9.3 72.8315 9.7 72.8315 10.3ZM75.7196 12.7C75.4208 12.7 75.122 12.6 75.0224 12.4C74.9989 12.3528 74.9699 12.3056 74.9392 12.2558L74.9392 12.2557C74.8399 12.0944 74.7236 11.9056 74.7236 11.6V6.2C74.7236 6.1 74.8232 6 74.9228 6H75.4208C75.5204 6 75.62 6.1 75.62 6.2V11.6C75.62 11.7 75.62 11.8 75.7196 11.9C75.8191 12 75.9187 12 76.0183 12H76.1179H76.2175H76.3171V12.1V12.4V12.5L76.2175 12.6C76.0183 12.7 75.9187 12.7 75.7196 12.7ZM77.5121 12.2C77.9105 12.6 78.508 12.8 79.2052 12.8C79.2793 12.8 79.3811 12.8277 79.4899 12.8574C79.6734 12.9073 79.8769 12.9628 80.0019 12.9C80.1015 12.85 80.2011 12.825 80.3007 12.8C80.4003 12.775 80.4999 12.75 80.5995 12.7C80.699 12.7 80.7986 12.6 80.7986 12.6V12.4V12.1C80.7986 12 80.7986 11.9 80.699 11.9H80.5995H80.4999C80.3007 12 80.0019 12.1 79.9023 12.1H79.4044C78.9064 12.1 78.6076 11.9 78.3088 11.7C78.0101 11.5 77.9105 11.1 77.9105 10.6H80.699H80.7986C80.8982 10.6 80.8982 10.6 80.8982 10.5V9.9C80.8982 9.3 80.699 8.8 80.4003 8.5C80.1015 8.2 79.7031 8 79.1056 8C78.4084 8 77.9105 8.2 77.5121 8.6C77.1137 9 76.9146 9.6 76.9146 10.4C76.9146 11.2 77.1137 11.8 77.5121 12.2ZM80.0019 9.8V10H77.6117C77.7113 9.6 77.8109 9.2 78.0101 9C78.2093 8.8 78.508 8.7 78.9064 8.7C79.3048 8.7 79.5039 8.8 79.7031 9C79.9023 9.2 80.0019 9.4 80.0019 9.8ZM85.0811 12.8004C84.6827 12.8004 84.2843 12.7004 84.0851 12.4004C83.886 12.1004 83.6868 11.8004 83.6868 11.4004C83.6868 11.0004 83.8859 10.6004 84.1847 10.4004C84.4835 10.1004 84.8819 10.0004 85.4794 10.0004C85.7782 10.0004 86.1766 10.1004 86.5749 10.2004V9.60039C86.5749 9.30039 86.4753 9.00039 86.3757 8.90039C86.2762 8.80039 85.9774 8.70039 85.579 8.70039C85.1806 8.70039 84.7823 8.80039 84.3839 8.90039C84.3341 8.90039 84.2843 8.92539 84.2345 8.95039C84.1847 8.97539 84.1349 9.00039 84.0851 9.00039C83.9855 9.00039 83.9855 8.90039 83.9855 8.80039V8.50039V8.30039L84.0851 8.20039C84.2843 8.10039 84.4835 8.00039 84.7823 8.00039C85.0811 7.90039 85.3798 7.90039 85.6786 7.90039C86.2762 7.90039 86.6745 8.00039 86.9733 8.30039C87.2721 8.50039 87.3717 8.90039 87.3717 9.40039V12.5004C87.3717 12.6004 87.2721 12.7004 87.1725 12.7004H86.7741C86.6745 12.7004 86.5749 12.6004 86.5749 12.5004V12.2004C86.4228 12.3532 86.2125 12.4476 86.0329 12.5282C85.9774 12.5532 85.9248 12.5768 85.8778 12.6004C85.6786 12.7004 85.3798 12.8004 85.0811 12.8004ZM85.2802 12.1004C85.4794 12.1004 85.6786 12.1004 85.8778 12.0004L86.4753 11.7004V10.8004C86.1766 10.7004 85.8778 10.7004 85.4794 10.7004C84.7823 10.7004 84.4835 11.0004 84.4835 11.5004C84.4835 11.7004 84.5831 11.9004 84.6827 12.0004C84.7823 12.0004 84.8819 12.0254 84.9815 12.0504C85.0811 12.0754 85.1806 12.1004 85.2802 12.1004ZM88.8658 11.3998C88.8658 12.2998 89.2642 12.6998 90.1605 12.6998C90.4593 12.6998 90.7581 12.6998 90.9573 12.5998L91.0568 12.4998V12.2998V12.0998V11.9998H90.9573H90.7581H90.3597C90.1605 11.9998 89.9613 11.9998 89.8617 11.8998C89.7621 11.7998 89.7622 11.5998 89.7622 11.3998V8.7998H90.9573C91.0568 8.7998 91.1564 8.6998 91.1564 8.5998V8.2998C91.1564 8.1998 91.0568 8.0998 90.9573 8.0998H89.7622V6.9998C89.7622 6.8998 89.6626 6.7998 89.563 6.7998H89.1646C89.065 6.7998 88.9654 6.8998 88.9654 6.9998L88.8658 8.0998L88.2683 8.19981C88.1687 8.19981 88.0691 8.2998 88.0691 8.2998V8.39981V8.5998C88.0691 8.6998 88.1687 8.7998 88.2683 8.7998H88.8658V11.3998Z" fill="white"/>
</svg>
