<svg width="136" height="40" viewBox="0 0 136 40" fill="none" xmlns="http://www.w3.org/2000/svg">
<path d="M0 8C0 5.19974 0 3.79961 0.544967 2.73005C1.02433 1.78924 1.78924 1.02433 2.73005 0.544967C3.79961 0 5.19974 0 8 0H128C130.8 0 132.2 0 133.27 0.544967C134.211 1.02433 134.976 1.78924 135.455 2.73005C136 3.79961 136 5.19974 136 8V32C136 34.8003 136 36.2004 135.455 37.27C134.976 38.2108 134.211 38.9757 133.27 39.455C132.2 40 130.8 40 128 40H8C5.19974 40 3.79961 40 2.73005 39.455C1.78924 38.9757 1.02433 38.2108 0.544967 37.27C0 36.2004 0 34.8003 0 32V8Z" fill="black"/>
<path d="M24.4736 30.0787C22.5989 30.0787 21.082 28.519 21.082 26.5798C21.082 24.6773 22.5989 23.0943 24.4736 23.0943C25.7194 23.0943 26.9653 23.6719 27.4955 24.7272C27.5323 24.8005 27.5808 24.8987 27.5808 25.0218V28.1145C27.5808 28.1761 27.5439 28.311 27.5188 28.3476C26.9402 29.4029 25.7562 30.0787 24.4736 30.0787ZM30.6277 32.742V20.4676H27.5808V21.498C26.7296 20.6757 25.5706 20.2229 24.1408 20.2229C20.6506 20.2229 18 23.046 18 26.5798C18 30.1286 20.6506 32.9883 24.1408 32.9883C25.5706 32.9883 26.7296 32.509 27.5808 31.6867V32.742H30.6277ZM43.8592 32.742V26.1021C43.8592 22.8363 41.3073 20.2229 38.0513 20.2229C34.7835 20.2229 32.2432 22.8363 32.2432 26.1021V32.742H35.2885V26.1021C35.2885 24.4942 36.4241 23.2657 38.0513 23.2657C39.6667 23.2657 40.8139 24.4942 40.8139 26.1021V32.742H43.8592ZM51.6039 30.0787C49.7292 30.0787 48.2123 28.519 48.2123 26.5798C48.2123 24.6773 49.7292 23.0943 51.6039 23.0943C52.8498 23.0943 54.0338 23.7085 54.6258 24.7272C54.6626 24.8005 54.711 24.8987 54.711 25.0218V28.1279C54.711 28.1895 54.6742 28.311 54.6508 28.3476C54.0705 29.4029 52.8865 30.0787 51.6039 30.0787ZM57.758 32.742V16.7857H54.711V21.498C53.8615 20.6757 52.7009 20.1847 51.271 20.1847C47.7808 20.1847 45.1302 23.046 45.1302 26.5798C45.1302 30.1286 47.7808 32.9883 51.271 32.9883C52.7009 32.9883 53.8615 32.509 54.711 31.6867V32.742H57.758ZM62.4188 32.742V26.187C62.4188 24.2478 63.4422 23.2175 65.3905 23.2175V20.2229C61.4689 20.2229 59.3735 22.297 59.3735 26.187V32.742H62.4188ZM72.0498 29.9322C70.2002 29.9322 68.6968 28.4341 68.6968 26.5798C68.6968 24.7389 70.2002 23.2424 72.0498 23.2424C73.9245 23.2424 75.4179 24.7389 75.4179 26.5798C75.4179 28.4341 73.9245 29.9322 72.0498 29.9322ZM72.0498 32.9883C75.6152 32.9883 78.5 30.1286 78.5 26.5798C78.5 23.046 75.6152 20.2229 72.0498 20.2229C68.4995 20.2229 65.613 23.046 65.613 26.5798C65.613 30.1286 68.4995 32.9883 72.0498 32.9883ZM81.4099 19.5355C82.3848 19.5355 83.1742 18.7365 83.1742 17.7678C83.1742 16.7857 82.3848 16 81.4099 16C80.4366 16 79.6472 16.7857 79.6472 17.7678C79.6472 18.7365 80.4366 19.5355 81.4099 19.5355ZM82.9266 20.4676H79.8796V32.742H82.9266V20.4676ZM90.7833 30.0787C88.9086 30.0787 87.3917 28.519 87.3917 26.5798C87.3917 24.6773 88.9086 23.0943 90.7833 23.0943C92.0291 23.0943 93.2115 23.7085 93.8035 24.7272C93.842 24.8005 93.8905 24.8987 93.8905 25.0218V28.1395C93.8905 28.2011 93.8536 28.311 93.8286 28.3476C93.2499 29.4029 92.0659 30.0787 90.7833 30.0787ZM96.9358 32.742V16.7857H93.8905V21.498C93.0393 20.6757 91.8803 20.2229 90.4505 20.2229C86.9603 20.2229 84.308 23.046 84.308 26.5798C84.308 30.1286 86.9603 33 90.4505 33C91.8803 33 93.0393 32.509 93.8905 31.6867V32.742H96.9358Z" fill="#35BA4E"/>
<path d="M112.993 32.7432L118 20.4555H115.485L111.389 31.1103H112.241L108.135 20.4688H105.545L110.552 32.7432H112.993ZM104.941 32.8896L104.953 30.7058H104.682C102.894 30.7058 101.635 29.6371 101.635 27.8328V22.4946H104.854V20.4688H101.635V17.1414H99.4038V27.8328C99.4038 31.0121 101.476 32.8896 104.682 32.8896H104.941Z" fill="white"/>
<path d="M50.1177 9.46311H53.2767C53.2947 9.53511 53.3097 9.62211 53.3217 9.72411C53.3337 9.82611 53.3397 9.92811 53.3397 10.0301C53.3397 10.4441 53.2767 10.8341 53.1507 11.2001C53.0247 11.5661 52.8267 11.8931 52.5567 12.1811C52.2687 12.4871 51.9237 12.7241 51.5217 12.8921C51.1197 13.0601 50.6607 13.1441 50.1447 13.1441C49.6767 13.1441 49.2357 13.0601 48.8217 12.8921C48.4077 12.7241 48.0477 12.4901 47.7417 12.1901C47.4357 11.8901 47.1927 11.5361 47.0127 11.1281C46.8327 10.7141 46.7427 10.2641 46.7427 9.77811C46.7427 9.29211 46.8327 8.84511 47.0127 8.43711C47.1927 8.02311 47.4357 7.66611 47.7417 7.36611C48.0477 7.06611 48.4077 6.83211 48.8217 6.66411C49.2357 6.49611 49.6767 6.41211 50.1447 6.41211C50.6667 6.41211 51.1317 6.50211 51.5397 6.68211C51.9537 6.86211 52.3077 7.11111 52.6017 7.42911L51.7647 8.24811C51.5547 8.02611 51.3207 7.85811 51.0627 7.74411C50.8047 7.62411 50.4957 7.56411 50.1357 7.56411C49.8417 7.56411 49.5627 7.61811 49.2987 7.72611C49.0347 7.82811 48.8037 7.97511 48.6057 8.16711C48.4077 8.35911 48.2487 8.59311 48.1287 8.86911C48.0147 9.13911 47.9577 9.44211 47.9577 9.77811C47.9577 10.1141 48.0147 10.4201 48.1287 10.6961C48.2487 10.9661 48.4077 11.1971 48.6057 11.3891C48.8097 11.5811 49.0437 11.7311 49.3077 11.8391C49.5717 11.9411 49.8537 11.9921 50.1537 11.9921C50.4957 11.9921 50.7837 11.9441 51.0177 11.8481C51.2577 11.7461 51.4617 11.6171 51.6297 11.4611C51.7497 11.3531 51.8517 11.2181 51.9357 11.0561C52.0257 10.8881 52.0947 10.7021 52.1427 10.4981H50.1177V9.46311Z" fill="white"/>
<path d="M55.5588 7.70811V9.20211H58.1418V10.3541H55.5588V11.8481H58.4298V13.0001H54.3438V6.55611H58.4298V7.70811H55.5588Z" fill="white"/>
<path d="M60.9149 13.0001V7.70811H59.1149V6.55611H63.9299V7.70811H62.1299V13.0001H60.9149Z" fill="white"/>
<path d="M66.7715 6.55611H67.9865V13.0001H66.7715V6.55611Z" fill="white"/>
<path d="M70.6532 13.0001V7.70811H68.8532V6.55611H73.6682V7.70811H71.8682V13.0001H70.6532Z" fill="white"/>
<path d="M79.385 13.1441C78.905 13.1441 78.458 13.0571 78.044 12.8831C77.636 12.7091 77.282 12.4721 76.982 12.1721C76.682 11.8661 76.445 11.5091 76.271 11.1011C76.103 10.6871 76.019 10.2461 76.019 9.77811C76.019 9.31011 76.103 8.87211 76.271 8.46411C76.445 8.05011 76.682 7.69311 76.982 7.39311C77.282 7.08711 77.636 6.84711 78.044 6.67311C78.458 6.49911 78.905 6.41211 79.385 6.41211C79.865 6.41211 80.309 6.49911 80.717 6.67311C81.131 6.84711 81.488 7.08711 81.788 7.39311C82.088 7.69311 82.322 8.05011 82.49 8.46411C82.664 8.87211 82.751 9.31011 82.751 9.77811C82.751 10.2461 82.664 10.6871 82.49 11.1011C82.322 11.5091 82.088 11.8661 81.788 12.1721C81.488 12.4721 81.131 12.7091 80.717 12.8831C80.309 13.0571 79.865 13.1441 79.385 13.1441ZM79.385 11.9921C79.685 11.9921 79.964 11.9381 80.222 11.8301C80.486 11.7221 80.714 11.5721 80.906 11.3801C81.104 11.1881 81.257 10.9571 81.365 10.6871C81.479 10.4111 81.536 10.1081 81.536 9.77811C81.536 9.44811 81.479 9.14811 81.365 8.87811C81.257 8.60211 81.104 8.36811 80.906 8.17611C80.714 7.98411 80.486 7.83411 80.222 7.72611C79.964 7.61811 79.685 7.56411 79.385 7.56411C79.085 7.56411 78.803 7.61811 78.539 7.72611C78.281 7.83411 78.053 7.98411 77.855 8.17611C77.663 8.36811 77.51 8.60211 77.396 8.87811C77.288 9.14811 77.234 9.44811 77.234 9.77811C77.234 10.1081 77.288 10.4111 77.396 10.6871C77.51 10.9571 77.663 11.1881 77.855 11.3801C78.053 11.5721 78.281 11.7221 78.539 11.8301C78.803 11.9381 79.085 11.9921 79.385 11.9921Z" fill="white"/>
<path d="M83.7344 6.55611H85.1474L87.7394 10.8761H87.8114L87.7394 9.63411V6.55611H88.9454V13.0001H87.6674L84.9314 8.43711H84.8594L84.9314 9.67911V13.0001H83.7344V6.55611Z" fill="white"/>
</svg>
