<svg width="137" height="40" viewBox="0 0 137 40" fill="none" xmlns="http://www.w3.org/2000/svg">
<path fill-rule="evenodd" clip-rule="evenodd" d="M133.024 40H4.97712C2.78081 40 0.998047 38.2056 0.998047 35.9904V4.01487C0.998047 1.80067 2.78081 0 4.97712 0H133.023C135.222 0 136.997 1.80067 136.997 4.01487V35.9904C136.998 38.2056 135.222 40 133.024 40Z" fill="black"/>
<path fill-rule="evenodd" clip-rule="evenodd" d="M70.9778 6H72.0086V13.247H70.9778V6ZM27.9937 10.3706C28.935 9.24289 29.3988 7.79346 29.2865 6.33008C27.8483 6.48081 26.5199 7.16671 25.5658 8.25112C25.0993 8.78088 24.7421 9.39718 24.5144 10.0648C24.2868 10.7324 24.1932 11.4383 24.2391 12.142C24.9585 12.1494 25.6701 11.9938 26.3205 11.687C26.9708 11.3801 27.5429 10.93 27.9937 10.3706ZM31.1624 19.7346C31.1748 18.7685 31.432 17.8212 31.9099 16.9809C32.3879 16.1405 33.071 15.4345 33.8959 14.9285C33.3719 14.1817 32.6806 13.5671 31.8769 13.1336C31.0733 12.7 30.1794 12.4594 29.2663 12.4309C28.0748 12.3061 26.9056 12.7692 25.95 13.1476C25.3434 13.3879 24.8229 13.594 24.4375 13.594C23.999 13.594 23.4636 13.3794 22.8636 13.1389C22.0791 12.8245 21.1843 12.4658 20.2518 12.485C19.1873 12.5193 18.1499 12.8282 17.2406 13.3815C16.3314 13.9349 15.5812 14.7139 15.0633 15.6425C12.82 19.5184 14.4933 25.2146 16.6423 28.3476C17.7175 29.8817 18.974 31.5954 20.6182 31.5346C21.3641 31.5038 21.8933 31.2815 22.4399 31.0519C23.0725 30.7863 23.7284 30.5108 24.7702 30.5108C25.7525 30.5108 26.3803 30.7777 26.9827 31.0338C27.5602 31.2793 28.1145 31.5149 28.9356 31.496C30.6621 31.468 31.7498 29.955 32.7873 28.4064C33.5598 27.3133 34.1542 26.1051 34.5486 24.8267C33.5455 24.4034 32.6896 23.6948 32.0874 22.7893C31.4853 21.8837 31.1635 20.8214 31.1624 19.7346ZM46.0101 27.6491H51.5007L52.8181 31.5343H55.1833L49.9827 17.1602H47.5665L42.366 31.5343H44.6916L46.0101 27.6491ZM50.9309 25.8563H46.5788L48.7254 19.551H48.7854L50.9309 25.8563ZM66.4148 26.2955C66.4148 29.5521 64.668 31.6445 62.0321 31.6445C61.3643 31.6793 60.7003 31.5259 60.1159 31.2016C59.5315 30.8773 59.0504 30.3954 58.7278 29.811H58.6779V35.0017H56.5222V21.0549H58.6088V22.798H58.6485C58.986 22.2164 59.4752 21.737 60.064 21.4107C60.6528 21.0845 61.3193 20.9236 61.9924 20.9453C64.6578 20.9453 66.4148 23.0478 66.4148 26.2955ZM64.1991 26.2955C64.1991 24.1737 63.1003 22.7788 61.4238 22.7788C59.7767 22.7788 58.6688 24.2031 58.6688 26.2955C58.6688 28.407 59.7767 29.8212 61.4238 29.8212C63.1003 29.8212 64.1991 28.4364 64.1991 26.2955ZM73.5909 31.6445C76.2269 31.6445 77.9736 29.5521 77.9736 26.2955C77.9736 23.0478 76.2167 20.9453 73.5512 20.9453C72.8781 20.9236 72.2116 21.0845 71.6228 21.4107C71.034 21.737 70.5448 22.2164 70.2073 22.798H70.1676V21.0549H68.0811V35.0017H70.2367V29.811H70.2866C70.6093 30.3954 71.0903 30.8773 71.6747 31.2016C72.2591 31.5258 72.9232 31.6793 73.5909 31.6445ZM72.9826 22.7788C74.6591 22.7788 75.7579 24.1737 75.7579 26.2955C75.7579 28.4364 74.6591 29.8212 72.9826 29.8212C71.3355 29.8212 70.2277 28.407 70.2277 26.2955C70.2277 24.2031 71.3355 22.7788 72.9826 22.7788ZM79.719 17.1602H81.8758V31.5343H79.719V17.1602ZM88.5773 31.6645C90.9528 31.6645 92.8094 30.3589 93.0994 28.4565L91.0525 28.4565C90.8611 28.93 90.5217 29.3292 90.0848 29.5948C89.6478 29.8604 89.1366 29.9781 88.6272 29.9305C88.2394 29.9447 87.8531 29.8765 87.4938 29.7303C87.1345 29.5841 86.8105 29.3633 86.5433 29.0825C86.2761 28.8018 86.0718 28.4675 85.944 28.1019C85.8162 27.7363 85.7678 27.3478 85.802 26.9621V26.8321H93.2194V26.0951C93.2194 22.9175 91.3923 20.9258 88.4867 20.9258C85.5324 20.9258 83.626 23.0577 83.626 26.3449C83.626 29.6219 85.5222 31.6645 88.5773 31.6645ZM91.0626 25.3287H85.8122C85.8113 24.9784 85.8799 24.6314 86.0141 24.3077C86.1483 23.9839 86.3454 23.69 86.5941 23.4427C86.8427 23.1954 87.138 22.9997 87.4628 22.8669C87.7877 22.7341 88.1357 22.6668 88.4867 22.6688C88.8347 22.6614 89.1805 22.7258 89.5023 22.858C89.8242 22.9902 90.1152 23.1874 90.357 23.4371C90.5989 23.6869 90.7865 23.9838 90.9079 24.3093C91.0293 24.6348 91.082 24.9819 91.0626 25.3287ZM102.874 31.5343V19.0818H98.4622V17.1602H109.512V19.0818H105.11V31.5343H102.874ZM110.27 17.1602L115.412 31.5343H117.857L122.998 17.1602H120.612L116.679 29.0236H116.619L112.696 17.1602H110.27ZM46.3084 6.33987C46.7603 6.30751 47.2138 6.37564 47.6362 6.53935C48.0585 6.70306 48.4392 6.95827 48.7508 7.28658C49.0623 7.61488 49.297 8.00809 49.4378 8.43784C49.5786 8.8676 49.6221 9.32319 49.5651 9.77174C49.5651 11.9783 48.37 13.2466 46.3084 13.2466H43.8083V6.33987H46.3084ZM44.8833 12.2699H46.1883C46.5112 12.2891 46.8344 12.2363 47.1343 12.1152C47.4342 11.9941 47.7033 11.8078 47.9219 11.5699C48.1406 11.3319 48.3033 11.0483 48.3982 10.7397C48.4932 10.4311 48.518 10.1052 48.4708 9.78582C48.5146 9.46769 48.4873 9.14385 48.3908 8.8375C48.2944 8.53114 48.1313 8.24986 47.9132 8.0138C47.695 7.77775 47.4272 7.59277 47.129 7.47211C46.8308 7.35146 46.5096 7.29811 46.1883 7.31591H44.8833V12.2699ZM50.8948 9.62435C50.7859 9.95085 50.7466 10.2965 50.7795 10.639C50.746 10.9819 50.7848 11.3279 50.8934 11.655C51.0019 11.982 51.1779 12.2828 51.4099 12.5379C51.6418 12.793 51.9247 12.9969 52.2404 13.1364C52.556 13.2759 52.8975 13.348 53.2427 13.348C53.5879 13.348 53.9293 13.2759 54.245 13.1364C54.5606 12.9969 54.8436 12.793 55.0755 12.5379C55.3075 12.2828 55.4834 11.982 55.592 11.655C55.7006 11.3279 55.7394 10.9819 55.7059 10.639C55.7388 10.2965 55.6995 9.95085 55.5906 9.62435C55.4818 9.29785 55.3057 8.99765 55.0738 8.74302C54.8419 8.48838 54.5592 8.28493 54.2439 8.14571C53.9285 8.00649 53.5875 7.93457 53.2427 7.93457C52.8979 7.93457 52.5569 8.00649 52.2415 8.14571C51.9262 8.28493 51.6435 8.48838 51.4116 8.74302C51.1796 8.99765 51.0036 9.29785 50.8948 9.62435ZM53.2444 8.84845C54.137 8.84845 54.6456 9.50916 54.6456 10.639C54.6456 11.7733 54.137 12.4335 53.2444 12.4335C52.3484 12.4335 51.8443 11.7779 51.8443 10.639C51.8443 9.50916 52.3484 8.84845 53.2444 8.84845ZM62.2543 13.2464H61.1849L60.1054 9.40761H60.0239L58.9489 13.2464H57.8897L56.45 8.03418H57.4955L58.4312 12.0114H58.5082L59.5821 8.03418H60.571L61.6449 12.0114H61.7264L62.6576 8.03418H63.6884L62.2543 13.2464ZM65.8917 8.03445H64.8994L64.8994 13.2467H65.9302V10.1975C65.912 10.0261 65.931 9.85273 65.9862 9.68936C66.0413 9.526 66.1312 9.37647 66.2496 9.25101C66.3681 9.12555 66.5123 9.02714 66.6725 8.96251C66.8326 8.89789 67.0049 8.86858 67.1774 8.8766C67.9398 8.8766 68.3045 9.29316 68.3045 10.1308V13.2466H69.3354V9.87246C69.3727 9.62087 69.3528 9.36413 69.2771 9.12126C69.2015 8.87839 69.0721 8.65561 68.8984 8.46943C68.7248 8.28325 68.5114 8.13844 68.2741 8.04573C68.0368 7.95301 67.7816 7.91477 67.5275 7.93384C67.2031 7.90753 66.8786 7.98286 66.5992 8.14932C66.3198 8.31578 66.0994 8.56507 65.9688 8.86247H65.8917V8.03445ZM73.5569 9.62439C73.448 9.95091 73.4087 10.2965 73.4416 10.6391C73.4081 10.982 73.447 11.3281 73.5556 11.6551C73.6642 11.9821 73.8401 12.2829 74.0721 12.538C74.3041 12.7931 74.5871 12.997 74.9027 13.1365C75.2184 13.276 75.5598 13.3481 75.9051 13.3481C76.2503 13.3481 76.5917 13.276 76.9074 13.1365C77.223 12.997 77.506 12.7931 77.738 12.538C77.97 12.2829 78.146 11.9821 78.2545 11.6551C78.3631 11.3281 78.402 10.982 78.3686 10.6391C78.4014 10.2965 78.3621 9.95091 78.2532 9.62439C78.1443 9.29788 77.9683 8.99767 77.7363 8.74303C77.5044 8.48839 77.2217 8.28494 76.9063 8.14571C76.5909 8.00649 76.2499 7.93457 75.9051 7.93457C75.5602 7.93457 75.2192 8.00649 74.9038 8.14571C74.5885 8.28494 74.3057 8.48839 74.0738 8.74303C73.8419 8.99767 73.6658 9.29788 73.5569 9.62439ZM75.9071 8.84854C76.7997 8.84854 77.3083 9.50926 77.3083 10.6391C77.3083 11.7734 76.7997 12.4336 75.9071 12.4336C75.0111 12.4336 74.507 11.778 74.507 10.6391C74.507 9.50926 75.011 8.84854 75.9071 8.84854ZM79.4541 11.7734C79.4541 10.8352 80.1542 10.2943 81.3968 10.2174L82.8116 10.136V9.68611C82.8116 9.13561 82.4469 8.82475 81.7423 8.82475C81.1669 8.82475 80.7681 9.03557 80.6537 9.40408H79.6557C79.7611 8.50881 80.605 7.93457 81.7899 7.93457C83.0994 7.93457 83.8379 8.5851 83.8379 9.68611V13.2474H82.8456V12.5149H82.7641C82.5985 12.7777 82.3661 12.9919 82.0904 13.1357C81.8148 13.2794 81.5059 13.3476 81.1952 13.3333C80.9759 13.3561 80.7543 13.3327 80.5446 13.2648C80.3349 13.1968 80.1419 13.0858 79.9778 12.9388C79.8138 12.7918 79.6824 12.6122 79.5922 12.4115C79.502 12.2107 79.455 11.9934 79.4541 11.7734ZM82.8116 11.328V10.8922L81.5361 10.9736C80.8168 11.0217 80.4906 11.2658 80.4906 11.7253C80.4906 12.1944 80.8984 12.4674 81.4591 12.4674C81.6235 12.484 81.7894 12.4675 81.9472 12.4188C82.1049 12.37 82.2513 12.2901 82.3775 12.1838C82.5036 12.0775 82.6071 11.947 82.6817 11.7999C82.7563 11.6529 82.8005 11.4924 82.8116 11.328ZM87.3608 7.94825C86.0411 7.94825 85.1926 8.99161 85.1926 10.6386C85.1926 12.2895 86.032 13.3329 87.3608 13.3329C87.6913 13.345 88.0189 13.2667 88.308 13.1064C88.5971 12.9461 88.8368 12.7099 89.001 12.4235H89.0826V13.247H90.0704V6H89.0395V8.8627H88.9625C88.81 8.57428 88.5784 8.33513 88.2948 8.1732C88.0112 8.01126 87.6872 7.93324 87.3608 7.94825ZM87.6531 12.4094C86.7797 12.4094 86.2575 11.7441 86.2575 10.6386C86.2574 9.54211 86.7853 8.87235 87.6531 8.87235C88.5162 8.87235 89.0588 9.55681 89.0588 10.6431C89.0588 11.7345 88.5219 12.4094 87.6531 12.4094ZM94.3354 10.639C94.3025 10.2965 94.3418 9.95085 94.4507 9.62435C94.5595 9.29785 94.7355 8.99765 94.9675 8.74302C95.1994 8.48838 95.4821 8.28493 95.7974 8.14571C96.1128 8.00649 96.4538 7.93457 96.7986 7.93457C97.1434 7.93457 97.4844 8.00649 97.7998 8.14571C98.1151 8.28493 98.3978 8.48838 98.6297 8.74302C98.8616 8.99765 99.0377 9.29785 99.1465 9.62435C99.2554 9.95085 99.2947 10.2965 99.2618 10.639C99.2953 10.9819 99.2565 11.3279 99.1479 11.655C99.0394 11.982 98.8634 12.2828 98.6314 12.5379C98.3995 12.793 98.1165 12.9969 97.8009 13.1364C97.4852 13.2759 97.1438 13.348 96.7986 13.348C96.4534 13.348 96.112 13.2759 95.7963 13.1364C95.4806 12.9969 95.1977 12.793 94.9658 12.5379C94.7338 12.2828 94.5578 11.982 94.4493 11.655C94.3407 11.3279 94.3019 10.9819 94.3354 10.639ZM98.2015 10.639C98.2015 9.50916 97.6929 8.84845 96.8003 8.84845C95.9043 8.84845 95.4002 9.50916 95.4002 10.639C95.4002 11.7779 95.9043 12.4335 96.8003 12.4335C97.6929 12.4335 98.2015 11.7733 98.2015 10.639ZM101.637 8.03445H100.645V13.2467H101.675V10.1975C101.657 10.0261 101.676 9.85273 101.731 9.68936C101.786 9.526 101.876 9.37647 101.995 9.25101C102.113 9.12555 102.257 9.02714 102.418 8.96251C102.578 8.89789 102.75 8.86858 102.923 8.8766C103.685 8.8766 104.05 9.29316 104.05 10.1308V13.2466H105.08V9.87246C105.118 9.62087 105.098 9.36413 105.022 9.12126C104.947 8.87839 104.817 8.65561 104.644 8.46943C104.47 8.28325 104.257 8.13844 104.019 8.04573C103.782 7.95301 103.527 7.91477 103.273 7.93384C102.948 7.90753 102.624 7.98286 102.344 8.14932C102.065 8.31578 101.845 8.56507 101.714 8.86247H101.637V8.03445Z" fill="white"/>
</svg>
