<svg xmlns="http://www.w3.org/2000/svg" width="111" height="30" viewBox="0 0 111 30">
    <g fill="#FFFFFE" fill-rule="evenodd">
        <path d="M18.128 13.784c-.029-3.223 2.639-4.791 2.761-4.865-1.511-2.203-3.853-2.504-4.676-2.527-1.967-.207-3.875 1.177-4.877 1.177-1.022 0-2.566-1.157-4.228-1.123-2.139.033-4.142 1.272-5.24 3.196-2.266 3.923-.576 9.688 1.595 12.859 1.086 1.553 2.355 3.287 4.015 3.226 1.625-.068 2.232-1.037 4.194-1.037 1.943 0 2.513 1.037 4.207.998 1.744-.029 2.842-1.56 3.89-3.127 1.255-1.781 1.759-3.534 1.779-3.624-.041-.013-3.387-1.29-3.42-5.153M14.928 4.306c.873-1.093 1.471-2.58 1.305-4.089-1.265.056-2.847.874-3.757 1.944-.806.942-1.526 2.486-1.34 3.938 1.421.106 2.88-.717 3.792-1.793"/>
        <g>
            <path d="M37.755 19.955l-1.125-3.474c-.119-.356-.342-1.192-.672-2.508h-.039a96.597 96.597 0 0 1-.632 2.508l-1.105 3.474h3.573zm3.89 5.549h-2.271l-1.244-3.909h-4.323l-1.185 3.909h-2.211l4.284-13.308h2.646l4.304 13.308zM50.49 20.666c0-.934-.21-1.704-.632-2.31-.461-.631-1.079-.948-1.856-.948-.526 0-1.004.176-1.431.524a2.42 2.42 0 0 0-.839 1.373c-.066.263-.099.48-.099.65v1.6c0 .698.214 1.287.642 1.767.428.481.984.721 1.668.721.803 0 1.429-.31 1.876-.928.447-.619.671-1.435.671-2.449zm2.172-.078c0 1.632-.441 2.922-1.323 3.869-.79.843-1.77 1.264-2.942 1.264-1.263 0-2.171-.454-2.724-1.363h-.04v5.055h-2.132V19.067c0-1.026-.027-2.079-.079-3.159h1.875l.119 1.521h.04c.71-1.146 1.79-1.718 3.237-1.718 1.133 0 2.077.447 2.834 1.342.757.896 1.135 2.074 1.135 3.535zM61.527 20.666c0-.934-.211-1.704-.632-2.31-.461-.631-1.079-.948-1.856-.948-.527 0-1.004.176-1.432.524a2.428 2.428 0 0 0-.838 1.373c-.065.263-.099.48-.099.65v1.6c0 .698.214 1.287.64 1.767.428.481.985.721 1.67.721.803 0 1.428-.31 1.875-.928.448-.619.672-1.435.672-2.449zm2.172-.078c0 1.632-.441 2.922-1.324 3.869-.789.843-1.77 1.264-2.941 1.264-1.264 0-2.172-.454-2.724-1.363h-.04v5.055h-2.132V19.067c0-1.026-.027-2.079-.079-3.159h1.876l.118 1.521h.04c.71-1.146 1.788-1.718 3.237-1.718 1.131 0 2.077.447 2.834 1.342.756.896 1.135 2.074 1.135 3.535zM76.039 21.773c0 1.131-.393 2.052-1.182 2.763-.867.778-2.074 1.165-3.625 1.165-1.431 0-2.58-.276-3.449-.829l.494-1.777a5.843 5.843 0 0 0 3.082.849c.803 0 1.428-.181 1.877-.544.448-.362.67-.847.67-1.454 0-.54-.183-.995-.553-1.364-.367-.369-.98-.712-1.835-1.029-2.33-.869-3.495-2.142-3.495-3.817 0-1.093.409-1.99 1.225-2.689.814-.699 1.9-1.048 3.258-1.048 1.211 0 2.217.21 3.019.631l-.533 1.738c-.75-.408-1.598-.612-2.547-.612-.75 0-1.336.184-1.756.553a1.58 1.58 0 0 0-.533 1.205c0 .526.203.961.612 1.302.355.317 1 .659 1.935 1.028 1.145.461 1.986 1 2.527 1.618.54.619.809 1.39.809 2.311M83.088 17.508h-2.35v4.659c0 1.185.414 1.777 1.244 1.777.381 0 .698-.033.948-.098l.058 1.619c-.42.157-.972.236-1.658.236-.842 0-1.5-.257-1.975-.769-.472-.514-.711-1.376-.711-2.587v-4.837h-1.4v-1.6h1.4v-1.757l2.094-.632v2.389h2.35v1.6M91.479 20.696c0-.884-.19-1.643-.573-2.277-.447-.766-1.086-1.148-1.914-1.148-.857 0-1.508.382-1.955 1.148-.383.634-.572 1.405-.572 2.317 0 .885.189 1.644.572 2.277.461.765 1.106 1.148 1.936 1.148.814 0 1.453-.389 1.914-1.168.394-.646.592-1.413.592-2.297zm2.212-.069c0 1.475-.421 2.686-1.263 3.633-.883.974-2.055 1.461-3.516 1.461-1.408 0-2.529-.467-3.365-1.402-.836-.934-1.254-2.113-1.254-3.534 0-1.487.43-2.705 1.293-3.652.861-.948 2.023-1.422 3.484-1.422 1.409 0 2.541.467 3.397 1.402.816.908 1.224 2.079 1.224 3.514zM100.621 17.783a3.696 3.696 0 0 0-.672-.058c-.75 0-1.33.283-1.738.849-.356.5-.533 1.132-.533 1.895v5.035h-2.131l.019-6.574c0-1.107-.027-2.114-.08-3.022h1.858l.078 1.836h.058c.225-.631.581-1.139 1.067-1.519a2.576 2.576 0 0 1 1.541-.514c.197 0 .375.014.533.039v2.033M108.123 19.699c.014-.632-.125-1.177-.414-1.639-.369-.592-.936-.888-1.699-.888-.697 0-1.264.289-1.697.869-.356.461-.567 1.014-.631 1.658h4.441zm2.033.553a5 5 0 0 1-.078.967h-6.396c.025.948.334 1.673.927 2.173.539.447 1.237.671 2.092.671.947 0 1.811-.152 2.588-.455l.334 1.481c-.908.395-1.98.593-3.217.593-1.488 0-2.656-.438-3.506-1.314-.847-.875-1.273-2.05-1.273-3.524 0-1.448.394-2.653 1.186-3.613.828-1.027 1.947-1.54 3.355-1.54 1.383 0 2.43.513 3.141 1.54.564.816.847 1.824.847 3.021zM35.945 4.038c0-.763-.202-1.348-.607-1.756-.404-.407-.994-.611-1.77-.611-.33 0-.612.023-.844.068v4.889c.129.02.365.029.708.029.802 0 1.421-.223 1.858-.669.436-.446.655-1.096.655-1.95zm1.105-.029c0 1.177-.352 2.063-1.057 2.658-.654.549-1.581.824-2.784.824-.595 0-1.106-.026-1.533-.077V.982c.557-.09 1.157-.135 1.805-.135 1.144 0 2.008.249 2.59.747.652.562.979 1.367.979 2.415zM41.822 5.071c0-.434-.094-.807-.282-1.118-.219-.377-.533-.565-.94-.565-.421 0-.741.188-.961.565-.187.311-.281.69-.281 1.137 0 .435.094.808.281 1.12.227.375.543.563.951.563.401 0 .714-.191.941-.573.194-.318.291-.694.291-1.129zm1.087-.034c0 .725-.207 1.319-.621 1.785-.434.479-1.009.718-1.727.718-.692 0-1.243-.229-1.654-.689-.41-.459-.616-1.038-.616-1.736 0-.731.211-1.329.635-1.795.424-.466.994-.698 1.712-.698.693 0 1.248.23 1.669.689.4.446.602 1.022.602 1.726zM50.765 2.719L49.29 7.433h-.959l-.612-2.047a15.252 15.252 0 0 1-.379-1.523h-.018a11.114 11.114 0 0 1-.379 1.523l-.65 2.047h-.97l-1.387-4.714h1.077l.533 2.24c.129.531.236 1.035.321 1.514h.018c.078-.394.207-.896.389-1.504l.669-2.25h.853l.641 2.202c.155.537.281 1.054.378 1.552h.029c.071-.485.178-1.002.321-1.552l.572-2.202h1.028M56.198 7.433H55.15v-2.7c0-.832-.316-1.248-.95-1.248a.945.945 0 0 0-.757.344 1.21 1.21 0 0 0-.291.808v2.796h-1.048V4.067c0-.414-.013-.863-.038-1.348h.921l.049.737h.029c.122-.229.304-.419.543-.569.284-.177.602-.265.95-.265.44 0 .806.142 1.097.427.362.349.543.869.543 1.561v2.823M58.041 7.433h1.047V.556h-1.047zM64.17 5.071c0-.434-.094-.807-.281-1.118-.219-.377-.534-.565-.94-.565-.422 0-.742.188-.961.565-.187.311-.281.69-.281 1.137 0 .435.094.808.281 1.12.227.375.543.563.951.563.401 0 .713-.191.94-.573.195-.318.291-.694.291-1.129zm1.088-.034c0 .725-.207 1.319-.621 1.785-.434.479-1.01.718-1.727.718-.693 0-1.244-.229-1.654-.689-.41-.459-.615-1.038-.615-1.736 0-.731.211-1.329.634-1.795.424-.466.995-.698 1.711-.698.694 0 1.248.23 1.67.689.401.446.602 1.022.602 1.726zM69.242 5.813v-.727c-1.156-.02-1.734.297-1.734.95 0 .246.066.43.201.553a.733.733 0 0 0 .512.184c.23 0 .445-.072.64-.218a.888.888 0 0 0 .381-.742zm1.088 1.62h-.941l-.079-.543h-.029c-.322.433-.781.65-1.377.65-.445 0-.804-.142-1.076-.427a1.34 1.34 0 0 1-.369-.96c0-.576.24-1.015.723-1.32.482-.303 1.16-.452 2.033-.446V4.3c0-.621-.326-.931-.979-.931-.465 0-.875.116-1.228.349l-.213-.689c.437-.271.978-.407 1.617-.407 1.232 0 1.85.65 1.85 1.95v1.736c0 .472.023.847.068 1.125zM75.199 5.445v-.786a1.194 1.194 0 0 0-.408-.965 1.025 1.025 0 0 0-.701-.257c-.391 0-.697.155-.922.465-.223.311-.336.708-.336 1.193 0 .466.107.844.322 1.135.227.31.533.466.916.466.344 0 .619-.13.828-.388.202-.239.301-.527.301-.863zm1.086 1.988h-.93l-.048-.757h-.03c-.297.576-.802.864-1.513.864-.569 0-1.041-.223-1.416-.669-.375-.447-.563-1.025-.563-1.737 0-.763.203-1.381.611-1.852.395-.44.879-.66 1.456-.66.632 0 1.076.213 1.328.64h.019V.556h1.049v5.607c0 .459.012.882.037 1.27zM84.162 5.071c0-.434-.094-.807-.281-1.118-.221-.377-.533-.565-.942-.565-.419 0-.74.188-.961.565-.187.311-.281.69-.281 1.137 0 .435.094.808.281 1.12.227.375.543.563.952.563.4 0 .715-.191.941-.573.193-.318.291-.694.291-1.129zm1.086-.034c0 .725-.207 1.319-.621 1.785-.434.479-1.008.718-1.727.718-.691 0-1.242-.229-1.654-.689-.41-.459-.615-1.038-.615-1.736 0-.731.211-1.329.635-1.795.423-.466.994-.698 1.713-.698.691 0 1.248.23 1.667.689.401.446.602 1.022.602 1.726zM90.883 7.433h-1.047v-2.7c0-.832-.316-1.248-.951-1.248a.942.942 0 0 0-.756.344 1.215 1.215 0 0 0-.291.808v2.796h-1.049V4.067c0-.414-.012-.863-.037-1.348h.92l.049.737h.029c.123-.229.305-.419.543-.569.285-.177.602-.265.951-.265.44 0 .805.142 1.096.427.363.349.543.869.543 1.561v2.823M97.936 3.504h-1.155v2.29c0 .582.205.873.612.873.187 0 .343-.016.466-.049l.028.796c-.207.077-.479.116-.815.116-.414 0-.736-.126-.968-.378-.235-.253-.35-.676-.35-1.271V3.504h-.69v-.785h.69v-.864l1.027-.31v1.174h1.155v.785M103.484 7.433h-1.048v-2.68c0-.845-.317-1.268-.95-1.268-.486 0-.818.245-1 .736a1.32 1.32 0 0 0-.048.377v2.835h-1.047V.556h1.047v2.841h.019c.33-.517.803-.775 1.416-.775.434 0 .793.142 1.078.427.356.355.533.883.533 1.581v2.803M108.207 4.581a1.413 1.413 0 0 0-.203-.805c-.182-.291-.459-.436-.834-.436a.995.995 0 0 0-.834.427 1.583 1.583 0 0 0-.311.814h2.182zm1 .272c0 .188-.014.346-.039.475h-3.143c.014.466.164.821.455 1.067.266.22.61.33 1.03.33.465 0 .888-.074 1.271-.223l.164.727c-.447.194-.972.292-1.582.292-.73 0-1.304-.215-1.72-.646-.418-.43-.625-1.007-.625-1.731 0-.711.193-1.303.582-1.775.406-.505.955-.757 1.648-.757.678 0 1.193.252 1.541.757.279.401.418.896.418 1.484z"/>
        </g>
    </g>
</svg>
