<svg xmlns="http://www.w3.org/2000/svg" width="117" height="29" viewBox="0 0 117 29">
    <defs>
        <linearGradient id="a" x1="61.298%" x2="25.951%" y1="4.96%" y2="71.909%">
            <stop offset="0%" stop-color="#00A0FF"/>
            <stop offset=".66%" stop-color="#00A1FF"/>
            <stop offset="26.01%" stop-color="#00BEFF"/>
            <stop offset="51.22%" stop-color="#00D2FF"/>
            <stop offset="76.04%" stop-color="#00DFFF"/>
            <stop offset="100%" stop-color="#00E3FF"/>
        </linearGradient>
        <linearGradient id="b" x1="107.586%" x2="-130.492%" y1="50.016%" y2="50.016%">
            <stop offset="0%" stop-color="#FFE000"/>
            <stop offset="40.87%" stop-color="#FFBD00"/>
            <stop offset="77.54%" stop-color="#FFA500"/>
            <stop offset="100%" stop-color="#FF9C00"/>
        </linearGradient>
        <linearGradient id="c" x1="86.238%" x2="-50.131%" y1="89.373%" y2="192.046%">
            <stop offset="0%" stop-color="#FF3A44"/>
            <stop offset="100%" stop-color="#C31162"/>
        </linearGradient>
        <linearGradient id="d" x1="-18.801%" x2="42.094%" y1="-68.4%" y2="-22.567%">
            <stop offset="0%" stop-color="#32A071"/>
            <stop offset="6.85%" stop-color="#2DA771"/>
            <stop offset="47.62%" stop-color="#15CF74"/>
            <stop offset="80.09%" stop-color="#06E775"/>
            <stop offset="100%" stop-color="#00F076"/>
        </linearGradient>
    </defs>
    <g fill="none" fill-rule="nonzero">
        <g fill="#FFF">
            <path stroke="#FFF" stroke-width=".625" d="M37.76 4.463c0 .827-.251 1.49-.745 1.983-.568.586-1.307.881-2.213.881-.866 0-1.605-.3-2.211-.89-.608-.6-.911-1.335-.911-2.216 0-.88.303-1.616.91-2.21.607-.596 1.346-.896 2.212-.896.431 0 .842.088 1.234.252.391.164.71.387.94.662l-.524.523c-.402-.47-.95-.701-1.65-.701-.631 0-1.179.218-1.644.657-.46.441-.69 1.012-.69 1.713 0 .701.23 1.277.69 1.718a2.332 2.332 0 0 0 1.644.657c.67 0 1.234-.223 1.68-.662.292-.291.46-.692.503-1.205h-2.183v-.716h2.912c.035.155.045.305.045.45zM42.38 1.98h-2.736v1.883h2.466v.716h-2.466v1.882h2.735v.73h-3.51V1.25h3.51zM45.64 7.19h-.775V1.98h-1.678v-.729h4.131v.73H45.64v5.21zM50.308 7.19V1.252h.773v5.94zM54.508 7.19h-.768V1.98h-1.684v-.729h4.136v.73h-1.684zM64.013 6.427c-.592.6-1.327.9-2.203.9-.88 0-1.615-.3-2.207-.9-.592-.6-.886-1.335-.886-2.206 0-.87.294-1.606.886-2.206.592-.6 1.327-.9 2.207-.9.871 0 1.606.3 2.198.905.597.605.891 1.335.891 2.201 0 .87-.294 1.606-.886 2.206zm-3.838-.498c.446.444.989.667 1.635.667.642 0 1.19-.223 1.63-.667.445-.445.67-1.016.67-1.708s-.225-1.263-.67-1.708a2.213 2.213 0 0 0-1.63-.667c-.646 0-1.189.223-1.635.667-.445.445-.67 1.016-.67 1.708s.225 1.263.67 1.708zM65.985 7.19V1.252h.94l2.922 4.62h.034l-.034-1.142V1.25h.773v5.94h-.807l-3.06-4.847h-.033l.033 1.146v3.7h-.768z"/>
            <path d="M58.526 15.865c-2.354 0-4.277 1.77-4.277 4.214 0 2.424 1.923 4.213 4.277 4.213 2.36 0 4.283-1.79 4.283-4.213 0-2.443-1.923-4.214-4.283-4.214zm0 6.768c-1.291 0-2.403-1.054-2.403-2.554 0-1.52 1.112-2.555 2.403-2.555 1.292 0 2.409 1.035 2.409 2.555 0 1.5-1.117 2.554-2.409 2.554zm-9.333-6.768c-2.36 0-4.278 1.77-4.278 4.214 0 2.424 1.918 4.213 4.278 4.213 2.358 0 4.278-1.79 4.278-4.213 0-2.443-1.92-4.214-4.278-4.214zm0 6.768c-1.293 0-2.408-1.054-2.408-2.554 0-1.52 1.115-2.555 2.408-2.555 1.292 0 2.403 1.035 2.403 2.555 0 1.5-1.111 2.554-2.403 2.554zm-11.107-5.477v1.791h4.327c-.127 1-.465 1.736-.984 2.249-.631.62-1.615 1.307-3.343 1.307a4.722 4.722 0 0 1-4.747-4.756 4.722 4.722 0 0 1 4.747-4.756c1.44 0 2.488.557 3.26 1.277l1.277-1.262c-1.08-1.02-2.52-1.804-4.537-1.804-3.65 0-6.72 2.936-6.72 6.545s3.07 6.545 6.72 6.545c1.974 0 3.456-.639 4.621-1.838 1.194-1.18 1.567-2.84 1.567-4.18 0-.416-.035-.798-.098-1.118h-6.09zm45.416 1.389c-.352-.943-1.438-2.68-3.651-2.68-2.193 0-4.018 1.707-4.018 4.214 0 2.36 1.806 4.213 4.228 4.213a4.238 4.238 0 0 0 3.554-1.868l-1.453-.957c-.485.701-1.146 1.166-2.1 1.166-.949 0-1.63-.43-2.065-1.277l5.702-2.332-.197-.48zm-5.814 1.403c-.049-1.625 1.277-2.457 2.227-2.457.744 0 1.376.367 1.586.894l-3.813 1.563zm-4.634 4.088h1.874V11.652h-1.874v12.384zm-3.07-7.233h-.063c-.421-.493-1.224-.938-2.242-.938-2.135 0-4.087 1.852-4.087 4.228 0 2.361 1.952 4.199 4.087 4.199 1.018 0 1.821-.45 2.242-.957h.063v.604c0 1.611-.871 2.477-2.276 2.477-1.145 0-1.855-.817-2.149-1.505l-1.63.673c.47 1.117 1.714 2.491 3.78 2.491 2.197 0 4.051-1.278 4.051-4.387V16.12h-1.776v.682zm-2.144 5.83c-1.292 0-2.373-1.07-2.373-2.54 0-1.485 1.081-2.569 2.373-2.569 1.273 0 2.277 1.084 2.277 2.569 0 1.47-1.004 2.54-2.277 2.54zm24.438-10.981h-4.483v12.384h1.87v-4.693h2.613c2.076 0 4.112-1.485 4.112-3.846 0-2.36-2.04-3.845-4.112-3.845zm.049 5.969h-2.663v-4.247h2.663a2.161 2.161 0 0 1 2.193 2.123c0 .958-.797 2.124-2.193 2.124zm11.556-1.78c-1.35 0-2.755.59-3.333 1.896l1.66.687c.356-.687 1.013-.91 1.707-.91.97 0 1.954.576 1.969 1.593v.13c-.339-.193-1.063-.48-1.954-.48-1.787 0-3.607.973-3.607 2.787 0 1.66 1.463 2.728 3.109 2.728 1.258 0 1.952-.56 2.388-1.213h.064v.957h1.805v-4.75c0-2.196-1.659-3.425-3.808-3.425zm-.225 6.787c-.612 0-1.464-.3-1.464-1.05 0-.958 1.063-1.326 1.983-1.326.823 0 1.209.18 1.709.416-.147 1.147-1.146 1.96-2.228 1.96zm10.611-6.516l-2.148 5.369h-.064l-2.222-5.369h-2.016l3.338 7.503-1.905 4.174h1.954l5.143-11.677h-2.08zm-16.851 7.924h1.874V11.652h-1.874v12.384z"/>
        </g>
        <path fill="url(#a)" d="M.484 26.068c-.295-.305-.465-.78-.465-1.394V2.764c0-.614.17-1.088.465-1.393l.073-.067 12.422 12.273v.29L.557 26.139l-.073-.071z" transform="matrix(1 0 0 -1 .204 27.85)"/>
        <path fill="url(#b)" d="M17.115 9.484l-4.136 4.093v.29l4.14 4.093.094-.054 4.904-2.757c1.4-.783 1.4-2.071 0-2.859l-4.904-2.753-.098-.053z" transform="matrix(1 0 0 -1 .204 27.85)"/>
        <path fill="url(#c)" d="M17.213 9.537l-4.234 4.185L.484 1.372C.949.887 1.707.83 2.569 1.312l14.644 8.224" transform="matrix(1 0 0 -1 .204 27.85)"/>
        <path fill="url(#d)" d="M17.213 17.906L2.569 26.131c-.862.478-1.62.42-2.085-.063l12.495-12.346 4.234 4.184z" transform="matrix(1 0 0 -1 .204 27.85)"/>
    </g>
</svg>
