<svg width="136" height="40" viewBox="0 0 136 40" fill="none" xmlns="http://www.w3.org/2000/svg">
<path d="M0 8C0 5.19974 0 3.79961 0.544967 2.73005C1.02433 1.78924 1.78924 1.02433 2.73005 0.544967C3.79961 0 5.19974 0 8 0H128C130.8 0 132.2 0 133.27 0.544967C134.211 1.02433 134.976 1.78924 135.455 2.73005C136 3.79961 136 5.19974 136 8V32C136 34.8003 136 36.2004 135.455 37.27C134.976 38.2108 134.211 38.9757 133.27 39.455C132.2 40 130.8 40 128 40H8C5.19974 40 3.79961 40 2.73005 39.455C1.78924 38.9757 1.02433 38.2108 0.544967 37.27C0 36.2004 0 34.8003 0 32V8Z" fill="black"/>
<path d="M21 33C28.1737 33 34 27.1863 34 20.0029C34 12.8191 28.1737 7 21 7C13.8152 7 8 12.8191 8 20.0029C8 27.1863 13.8152 33 21 33Z" fill="#A50034"/>
<path d="M20.4775 14.2969V25.7038H24.1011V24.6782H21.5219V14.2969H20.4775Z" fill="white"/>
<path d="M16.849 17.4088C17.711 17.4088 18.4059 16.7073 18.4059 15.8506C18.4059 14.9933 17.711 14.2891 16.849 14.2891C15.9869 14.2891 15.292 14.9933 15.292 15.8506C15.292 16.708 15.9869 17.4088 16.849 17.4088Z" fill="white"/>
<path d="M21.5208 9.12257C21.3849 9.11584 21.1266 9.10742 21.0031 9.10742C15.0026 9.10742 10.1191 13.9965 10.1191 19.998C10.1191 22.9131 11.251 25.6454 13.301 27.7001C15.3595 29.7502 18.091 30.8829 21.0031 30.8829C23.9042 30.8829 26.635 29.7502 28.6898 27.7001C30.7449 25.6454 31.8821 22.9131 31.8821 19.998V19.5136H31.4418H24.1104V20.5161H30.8455C30.8455 20.5379 30.8455 20.6443 30.8408 20.6719C30.4984 25.8026 26.2166 29.8663 21.0031 29.8663C18.3641 29.8663 15.8896 28.8393 14.0272 26.9741C12.1588 25.1166 11.1292 22.6421 11.1292 19.9977C11.1292 17.3684 12.1588 14.8811 14.0272 13.0179C15.8896 11.1564 18.3641 10.1294 21.0031 10.1294C21.1168 10.1294 21.3933 10.1294 21.5208 10.1361V9.12257Z" fill="white"/>
<path d="M43.3301 16.0002H50.5401V14.3202H45.0801V11.8002H49.2801V10.1202H45.0801V7.8802H50.4001V6.2002H43.3301V16.0002Z" fill="white"/>
<path d="M52.2939 16.0002H53.9039V12.3602C53.9039 11.3102 54.6039 10.6102 55.5839 10.6102C56.4239 10.6102 56.9839 11.1702 56.9839 12.1642V16.0002H58.5939V11.9402C58.5939 10.1202 57.4739 9.0002 56.0039 9.0002C54.6739 9.0002 53.9739 10.1202 53.9739 10.1202H53.9039V9.1402H52.2939V16.0002Z" fill="white"/>
<path d="M60.0617 18.9402C61.4617 18.9402 62.3017 18.1002 62.3017 16.5602V9.1402H60.6917V16.3502C60.6917 17.0502 60.3417 17.4002 59.7117 17.4002C59.2917 17.4002 58.9417 17.1902 58.9417 17.1902V18.7302C58.9417 18.7302 59.3617 18.9402 60.0617 18.9402ZM61.5317 8.1602C62.0917 8.1602 62.5117 7.7402 62.5117 7.1802C62.5117 6.6202 62.0917 6.2002 61.5317 6.2002C60.9717 6.2002 60.5517 6.6202 60.5517 7.1802C60.5517 7.7402 60.9717 8.1602 61.5317 8.1602Z" fill="white"/>
<path d="M67.4801 16.1402C69.4401 16.1402 71.0501 14.5302 71.0501 12.5702C71.0501 10.6102 69.4401 9.0002 67.4801 9.0002C65.5201 9.0002 63.9101 10.6102 63.9101 12.5702C63.9101 14.5302 65.5201 16.1402 67.4801 16.1402ZM67.4801 14.6002C66.3601 14.6002 65.5201 13.7602 65.5201 12.5702C65.5201 11.3802 66.3601 10.5402 67.4801 10.5402C68.6001 10.5402 69.4401 11.3802 69.4401 12.5702C69.4401 13.7602 68.6001 14.6002 67.4801 14.6002Z" fill="white"/>
<path d="M73.3612 18.9402C74.5512 18.9402 75.3072 18.1002 75.8812 16.6302L78.8212 9.1402H77.0712L75.3212 13.9002H75.2512L73.4312 9.1402H71.6812L74.4112 16.0002L74.2012 16.4902C73.9632 17.0362 73.6412 17.4002 73.0112 17.4002C72.5212 17.4002 72.1712 17.1902 72.1712 17.1902V18.7302C72.1712 18.7302 72.7032 18.9402 73.3612 18.9402Z" fill="white"/>
<path d="M85.8239 16.1402C87.7839 16.1402 89.3939 14.5302 89.3939 12.5702C89.3939 10.6102 87.7839 9.0002 85.8239 9.0002C83.8639 9.0002 82.2539 10.6102 82.2539 12.5702C82.2539 14.5302 83.8639 16.1402 85.8239 16.1402ZM85.8239 14.6002C84.7039 14.6002 83.8639 13.7602 83.8639 12.5702C83.8639 11.3802 84.7039 10.5402 85.8239 10.5402C86.9439 10.5402 87.7839 11.3802 87.7839 12.5702C87.7839 13.7602 86.9439 14.6002 85.8239 14.6002Z" fill="white"/>
<path d="M91.005 16.0002H92.615V12.3602C92.615 11.3102 93.315 10.6102 94.295 10.6102C95.135 10.6102 95.695 11.1702 95.695 12.1642V16.0002H97.305V11.9402C97.305 10.1202 96.185 9.0002 94.715 9.0002C93.385 9.0002 92.685 10.1202 92.685 10.1202H92.615V9.1402H91.005V16.0002Z" fill="white"/>
<path d="M67.5462 32.2102C69.7162 32.2102 71.1162 30.8102 71.1162 29.2702C71.1162 25.7002 66.0763 26.7502 66.0763 24.7902C66.0763 24.1602 66.6363 23.6002 67.6863 23.6002C68.9463 23.6002 69.6462 24.5102 69.6462 24.5102L70.8363 23.3202C70.8363 23.3202 69.7863 21.9902 67.6863 21.9902C65.5863 21.9902 64.2563 23.3202 64.2563 24.7902C64.2563 28.3602 69.2962 27.3102 69.2962 29.2702C69.2962 29.9702 68.6662 30.6002 67.5462 30.6002C65.9362 30.6002 65.0963 29.4802 65.0963 29.4802L63.9062 30.6702C63.9062 30.6702 65.0962 32.2102 67.5462 32.2102Z" fill="white"/>
<path d="M72.729 32.0002H74.339V28.2202C74.339 27.2402 74.969 26.6102 75.879 26.6102C76.579 26.6102 77.069 27.1002 77.069 27.9262V32.0002H78.679V28.2202C78.679 27.2402 79.309 26.6102 80.219 26.6102C80.919 26.6102 81.409 27.1002 81.409 28.0102V32.0002H83.019V27.8002C83.019 26.0782 82.039 25.0002 80.639 25.0002C79.099 25.0002 78.399 26.1902 78.399 26.1902H78.329C78.329 26.1902 77.769 25.0002 76.299 25.0002C74.899 25.0002 74.409 26.1202 74.409 26.1202H74.339V25.1402H72.729V32.0002Z" fill="white"/>
<path d="M86.869 32.1402C88.269 32.1402 88.899 31.0902 88.899 31.0902H88.969V32.0002H90.579V27.7302C90.579 26.2322 89.389 25.0002 87.709 25.0002C85.959 25.0002 84.979 26.4002 84.979 26.4002L85.959 27.3802C85.959 27.3802 86.617 26.5402 87.639 26.5402C88.409 26.5402 88.969 27.1002 88.969 27.5902L86.659 28.0102C85.469 28.2202 84.629 29.0602 84.629 30.1802C84.629 31.2302 85.539 32.1402 86.869 32.1402ZM87.289 30.8102C86.659 30.8102 86.239 30.3902 86.239 29.9702C86.239 29.5502 86.519 29.2842 87.359 29.1302L88.969 28.8502V29.0602C88.969 30.0402 88.199 30.8102 87.289 30.8102Z" fill="white"/>
<path d="M92.6828 32.0002H94.2928V28.6402C94.2928 27.4502 95.0628 26.6802 96.0428 26.6802C96.3928 26.6802 96.6028 26.7502 96.6028 26.7502V25.0002H96.3228C95.0628 25.0002 94.3628 26.1202 94.3628 26.1202H94.2928V25.1402H92.6828V32.0002Z" fill="white"/>
<path d="M100.804 32.1402C101.504 32.1402 101.994 31.9302 101.994 31.9302V30.4042C101.994 30.4042 101.574 30.6002 101.154 30.6002C100.594 30.6002 100.244 30.2502 100.244 29.5502V26.8202H101.784V25.2802H100.244V23.1102H98.7745V24.5102C98.7745 25.0702 98.5645 25.2802 98.0745 25.2802H97.3745V26.8202H98.6345V29.7602C98.6345 31.3002 99.4744 32.1402 100.804 32.1402Z" fill="white"/>
<path d="M108.576 32.0002H110.326V23.8802H113.196V22.2002H105.706V23.8802H108.576V32.0002Z" fill="white"/>
<path d="M117.538 32.0002H119.498L123.208 22.2002H121.388L118.518 29.8302L115.648 22.2002H113.828L117.538 32.0002Z" fill="white"/>
<path d="M46.1783 22.1428H44V31.8559H50.6905V29.9651H46.1783V22.1428ZM55.4824 28.1544H57.2565V29.8527C56.9294 29.981 56.2915 30.1089 55.6846 30.1089C53.7241 30.1089 53.071 29.0832 53.071 27.0001C53.071 25.0135 53.6929 23.8422 55.6534 23.8422C56.743 23.8422 57.3653 24.195 57.8781 24.8683L59.2324 23.5857C58.4075 22.3686 56.9602 22 55.6069 22C52.5565 22 50.9542 23.7147 50.9542 26.9839C50.9542 30.2372 52.4012 32 55.5916 32C57.0539 32 58.4855 31.6156 59.2632 31.0547V26.3429H55.4824V28.1544Z" fill="white"/>
</svg>
