<svg width="136" height="40" viewBox="0 0 136 40" fill="none" xmlns="http://www.w3.org/2000/svg">
<path d="M0 8C0 5.19974 0 3.79961 0.544967 2.73005C1.02433 1.78924 1.78924 1.02433 2.73005 0.544967C3.79961 0 5.19974 0 8 0H128C130.8 0 132.2 0 133.27 0.544967C134.211 1.02433 134.976 1.78924 135.455 2.73005C136 3.79961 136 5.19974 136 8V32C136 34.8003 136 36.2004 135.455 37.27C134.976 38.2108 134.211 38.9757 133.27 39.455C132.2 40 130.8 40 128 40H8C5.19974 40 3.79961 40 2.73005 39.455C1.78924 38.9757 1.02433 38.2108 0.544967 37.27C0 36.2004 0 34.8003 0 32V8Z" fill="#673091"/>
<path d="M76.0998 21.9998H77.3098V19.2498H79.1798C80.6648 19.2498 81.7648 18.1498 81.7648 16.7748C81.7648 15.3998 80.6648 14.2998 79.1798 14.2998H76.0998V21.9998ZM77.3098 18.1498V15.3998H79.1798C79.9498 15.3998 80.5548 16.0048 80.5548 16.7748C80.5548 17.5448 79.9498 18.1498 79.1798 18.1498H77.3098Z" fill="white"/>
<path d="M82.8717 21.9998H83.9717V14.2998H82.8717V21.9998Z" fill="white"/>
<path d="M88.6467 21.9998H89.7467V18.6448C89.7467 17.4898 88.8667 16.6098 87.5467 16.6098C86.1717 16.6098 85.4567 17.5998 85.4567 17.5998L86.1717 18.3148C86.1717 18.3148 86.7217 17.5998 87.5467 17.5998C88.2067 17.5998 88.6467 18.0398 88.6467 18.5898L86.7217 18.9198C85.7867 19.0848 85.1817 19.6898 85.1817 20.5698C85.1817 21.3948 85.8967 22.1098 86.9417 22.1098C88.0967 22.1098 88.6467 21.2298 88.6467 21.2298V21.9998ZM88.6467 19.6348C88.6467 20.5148 87.9867 21.1748 87.1617 21.1748C86.6117 21.1748 86.2817 20.8448 86.2817 20.4598C86.2817 20.1298 86.5567 19.8438 87.1067 19.7448L88.6467 19.4698V19.6348Z" fill="white"/>
<path d="M90.8441 24.1448C90.8441 24.1448 91.1741 24.3098 91.6691 24.3098C92.5491 24.3098 93.1541 23.7158 93.5941 22.6048L95.9041 16.7198H94.6941L93.2091 20.6248L91.7241 16.7198H90.5141L92.6591 21.9998L92.4391 22.5498C92.2631 22.9898 91.9441 23.2648 91.5041 23.2648C91.1191 23.2648 90.8441 23.0998 90.8441 23.0998V24.1448Z" fill="white"/>
<path d="M100.797 20.3498C100.797 20.3498 100.192 21.0648 99.2565 21.0648C98.3765 21.0648 97.7165 20.4598 97.6065 19.7448H101.677C101.677 19.7448 101.732 19.5248 101.732 19.1948C101.732 17.7098 100.632 16.6098 99.1465 16.6098C97.6615 16.6098 96.4515 17.8198 96.4515 19.3598C96.4515 20.8998 97.6615 22.1098 99.2015 22.1098C100.742 22.1098 101.457 21.1198 101.457 21.1198L100.797 20.3498ZM97.6065 18.8098C97.8265 18.0948 98.3215 17.5998 99.1465 17.5998C99.9165 17.5998 100.412 18.0948 100.577 18.8098H97.6065Z" fill="white"/>
<path d="M102.937 21.9998H104.037V19.3048C104.037 18.3698 104.697 17.7098 105.467 17.7098C105.687 17.7098 105.907 17.7648 105.907 17.7648V16.6098H105.632C104.587 16.6098 104.037 17.4348 104.037 17.4348V16.7198H102.937V21.9998Z" fill="white"/>
<path d="M106.406 21.1198C106.406 21.1198 107.121 22.1098 108.496 22.1098C109.761 22.1098 110.531 21.3398 110.531 20.4598C110.531 18.5898 107.726 19.0298 107.726 18.1498C107.726 17.8748 108.001 17.5998 108.551 17.5998C109.266 17.5998 109.706 18.0398 109.706 18.0398L110.421 17.3248C110.421 17.3248 109.816 16.6098 108.551 16.6098C107.341 16.6098 106.626 17.3248 106.626 18.1498C106.626 20.0198 109.431 19.5798 109.431 20.4598C109.431 20.7898 109.101 21.1198 108.496 21.1198C107.671 21.1198 107.121 20.4048 107.121 20.4048L106.406 21.1198Z" fill="white"/>
<path d="M78.3548 28.9848C78.3548 28.9848 79.7298 28.1048 79.7298 26.8948C79.7298 25.9598 78.9598 25.1898 77.8598 25.1898C76.7048 25.1898 75.9348 25.9598 75.9348 26.9498C75.9348 27.9398 77.0348 28.9848 77.0348 28.9848C77.0348 28.9848 75.5498 29.6998 75.5498 31.1848C75.5498 32.2848 76.4298 33.1648 77.8048 33.1648C79.1138 33.1648 79.8948 32.3398 79.8948 32.3398C79.8948 32.3398 80.3898 33.1098 81.2148 33.1098C81.5998 33.1098 81.7098 33.0548 81.7098 33.0548V32.0648C81.7098 32.0648 81.5448 32.1198 81.3798 32.1198C80.9398 32.1198 80.5548 31.6248 80.5548 31.6248C80.5548 31.6248 81.2698 30.5798 81.2698 29.2598H80.2798C80.2798 30.1398 79.8398 30.7998 79.8398 30.7998L78.3548 28.9848ZM79.2348 31.6248C79.2348 31.6248 78.7398 32.1748 77.8598 32.1748C77.1448 32.1748 76.6498 31.6798 76.6498 31.1298C76.6498 30.2498 77.6398 29.6448 77.6398 29.6448L79.2348 31.6248ZM77.8048 28.3248C77.8048 28.3248 76.9798 27.5548 76.9798 26.9498C76.9798 26.5098 77.3098 26.1798 77.8598 26.1798C78.3548 26.1798 78.6848 26.5098 78.6848 26.9498C78.6848 27.5548 77.8048 28.3248 77.8048 28.3248Z" fill="white"/>
<path d="M86.3277 32.9998H87.5377V26.4548H89.8477V25.2998H84.0177V26.4548H86.3277V32.9998Z" fill="white"/>
<path d="M93.2061 32.9998H94.5261L97.4961 25.2998H96.2311L93.8661 31.4598L91.5011 25.2998H90.2361L93.2061 32.9998Z" fill="white"/>
<path d="M97.393 32.1198C97.393 32.1198 98.108 33.1098 99.483 33.1098C100.748 33.1098 101.518 32.3398 101.518 31.4598C101.518 29.5898 98.713 30.0298 98.713 29.1498C98.713 28.8748 98.988 28.5998 99.538 28.5998C100.253 28.5998 100.693 29.0398 100.693 29.0398L101.408 28.3248C101.408 28.3248 100.803 27.6098 99.538 27.6098C98.328 27.6098 97.613 28.3248 97.613 29.1498C97.613 31.0198 100.418 30.5798 100.418 31.4598C100.418 31.7898 100.088 32.1198 99.483 32.1198C98.658 32.1198 98.108 31.4048 98.108 31.4048L97.393 32.1198Z" fill="white"/>
<path fill-rule="evenodd" clip-rule="evenodd" d="M17.1348 21.9184C17.1348 20.2715 15.8092 18.9452 14.1883 18.9452H12.7271V24.8654H14.1883C15.8092 24.8654 17.1348 23.5382 17.1348 21.9184ZM23.7817 33.7207H18.4178L14.1593 27.8136H12.7271V33.708H8V16H14.7719C18.6759 16 21.8624 18.6535 21.8624 21.9184C21.8624 23.9097 20.6408 25.6882 18.7816 26.7764L23.7817 33.7207ZM29.1134 22.9815C27.8651 22.9815 26.8032 24.6776 26.8032 26.7771C26.8032 28.8767 27.8651 30.575 29.1134 30.575C30.3907 30.575 31.4509 28.8767 31.4509 26.7771C31.4509 24.6776 30.3907 22.9815 29.1134 22.9815ZM36.3895 26.7771C36.3895 30.7881 33.1262 34 29.1134 34C25.102 34 21.8628 30.7881 21.8628 26.7771C21.8628 22.7692 25.102 19.5556 29.1134 19.5556C33.1262 19.5556 36.3895 22.7692 36.3895 26.7771ZM42.0368 25.2916L47.4822 19.8495H57.1576V26.86V27.4416C57.1576 29.6456 57.6912 30.3346 58.854 30.3346C60.0001 30.3346 60.7417 29.7508 61.274 28.8223V27.0697V19.8495H66.0002V33.7083H64.9914L62.8663 31.8763C61.9892 32.8851 60.1844 34 58.2178 34C54.0751 34 52.4301 31.4767 52.4301 28.7425V20.5074L46.4462 26.4863L53.6705 33.7083H47.7218L42.0368 28.0793V33.7083H37.3105V19.8315H42.0368V25.2916Z" fill="white"/>
<path d="M8.18018 12.0002H8.90018L9.62018 10.2452H12.5902L13.3102 12.0002H14.0302L11.4202 5.7002H10.7902L8.18018 12.0002ZM9.89018 9.6152L11.1052 6.6452L12.3202 9.6152H9.89018Z" fill="white"/>
<path d="M15.9283 12.0002H16.5583L18.3133 7.6802H17.6383L16.2433 11.1452L14.8483 7.6802H14.1733L15.9283 12.0002Z" fill="white"/>
<path d="M21.7804 12.0002H22.4104V9.2552C22.4104 8.3102 21.6904 7.5902 20.7004 7.5902C19.6654 7.5902 19.0804 8.4002 19.0804 8.4002L19.4854 8.8052C19.4854 8.8052 19.9354 8.1752 20.7004 8.1752C21.3304 8.1752 21.7804 8.6252 21.7804 9.2552L20.1154 9.5252C19.3054 9.6602 18.8554 10.1102 18.8554 10.8302C18.8554 11.4602 19.4854 12.0902 20.3854 12.0902C21.3304 12.0902 21.7804 11.4152 21.7804 11.4152V12.0002ZM21.7804 10.0652C21.7804 10.9202 21.1954 11.5052 20.3854 11.5052C19.8004 11.5052 19.4854 11.1902 19.4854 10.8302C19.4854 10.4252 19.7554 10.1642 20.2954 10.0652L21.7804 9.7952V10.0652Z" fill="white"/>
<path d="M23.7562 6.2402C23.7562 6.4652 23.9362 6.6452 24.1612 6.6452C24.3862 6.6452 24.5662 6.4652 24.5662 6.2402C24.5662 6.0152 24.3862 5.8352 24.1612 5.8352C23.9362 5.8352 23.7562 6.0152 23.7562 6.2402ZM23.8462 12.0002H24.4762V7.6802H23.8462V12.0002Z" fill="white"/>
<path d="M25.9654 12.0002H26.5954V5.7002H25.9654V12.0002Z" fill="white"/>
<path d="M30.6925 12.0002H31.3225V9.2552C31.3225 8.3102 30.6025 7.5902 29.6125 7.5902C28.5775 7.5902 27.9925 8.4002 27.9925 8.4002L28.3975 8.8052C28.3975 8.8052 28.8475 8.1752 29.6125 8.1752C30.2425 8.1752 30.6925 8.6252 30.6925 9.2552L29.0275 9.5252C28.2175 9.6602 27.7675 10.1102 27.7675 10.8302C27.7675 11.4602 28.3975 12.0902 29.2975 12.0902C30.2425 12.0902 30.6925 11.4152 30.6925 11.4152V12.0002ZM30.6925 10.0652C30.6925 10.9202 30.1075 11.5052 29.2975 11.5052C28.7125 11.5052 28.3975 11.1902 28.3975 10.8302C28.3975 10.4252 28.6675 10.1642 29.2075 10.0652L30.6925 9.7952V10.0652Z" fill="white"/>
<path d="M32.8033 12.0002H33.4333V11.3702C33.4333 11.3702 33.9283 12.0902 34.9183 12.0902C36.0883 12.0902 37.0333 11.1452 37.0333 9.8402C37.0333 8.5352 36.0883 7.5902 34.9183 7.5902C33.9283 7.5902 33.4333 8.3102 33.4333 8.3102V5.7002H32.8033V12.0002ZM34.9183 11.5052C34.1533 11.5052 33.4333 10.7852 33.4333 9.8402C33.4333 8.8952 34.1533 8.1752 34.9183 8.1752C35.7283 8.1752 36.4033 8.8502 36.4033 9.8402C36.4033 10.8302 35.7283 11.5052 34.9183 11.5052Z" fill="white"/>
<path d="M38.1997 12.0002H38.8297V5.7002H38.1997V12.0002Z" fill="white"/>
<path d="M43.5569 10.7852C43.5569 10.7852 43.0709 11.5052 42.1619 11.5052C41.3519 11.5052 40.6769 10.8302 40.6319 10.0652L44.1419 10.0742C44.1419 10.0742 44.1869 9.9302 44.1869 9.7502C44.1869 8.4902 43.2869 7.5902 42.1169 7.5902C40.9919 7.5902 40.0019 8.5802 40.0019 9.8402C40.0019 11.1002 40.9919 12.0902 42.1619 12.0902C43.3319 12.0902 43.9619 11.1902 43.9619 11.1902L43.5569 10.7852ZM40.6319 9.5252C40.7219 8.8052 41.3519 8.1752 42.1169 8.1752C42.8819 8.1752 43.4669 8.7602 43.5569 9.5252H40.6319Z" fill="white"/>
<path d="M49.0887 12.0902C50.3037 12.0902 51.2937 11.1002 51.2937 9.8402C51.2937 8.5802 50.3037 7.5902 49.0887 7.5902C47.8737 7.5902 46.8837 8.5802 46.8837 9.8402C46.8837 11.1002 47.8737 12.0902 49.0887 12.0902ZM49.0887 11.5052C48.2337 11.5052 47.5137 10.7762 47.5137 9.8402C47.5137 8.8952 48.2337 8.1752 49.0887 8.1752C49.9437 8.1752 50.6637 8.8952 50.6637 9.8402C50.6637 10.7852 49.9437 11.5052 49.0887 11.5052Z" fill="white"/>
<path d="M52.4194 12.0002H53.0494V9.6152C53.0494 8.7602 53.6344 8.1752 54.3994 8.1752C55.0744 8.1752 55.5694 8.6702 55.5694 9.4352V12.0002H56.1994V9.4352C56.1994 8.3102 55.4794 7.5902 54.4444 7.5902C53.4994 7.5902 53.0494 8.3102 53.0494 8.3102V7.6802H52.4194V12.0002Z" fill="white"/>
</svg>
