<svg width="137" height="40" viewBox="0 0 137 40" fill="none" xmlns="http://www.w3.org/2000/svg">
<path d="M132.034 40H5.96057C3.18101 40 0.99707 37.8 0.99707 35V5C0.99707 2.2 3.18101 0 5.96057 0H132.034C134.813 0 136.997 2.2 136.997 5V35C136.997 37.8 134.813 40 132.034 40Z" fill="black"/>
<path fill-rule="evenodd" clip-rule="evenodd" d="M25.3308 13.4C25.4303 13.6 25.7291 13.7 26.0279 13.7C26.2271 13.7 26.3267 13.7 26.5259 13.6L26.6255 13.5V13.4V13.1V13H26.5259H26.4263H26.3267C26.2271 13 26.1275 13 26.0279 12.9C25.9283 12.8 25.9283 12.7 25.9283 12.6V7.2C25.9283 7.1 25.8287 7 25.7291 7H25.2312C25.1316 7 25.032 7.1 25.032 7.2V12.6C25.032 12.9056 25.1482 13.0944 25.2475 13.2557C25.2782 13.3056 25.3072 13.3528 25.3308 13.4ZM23.339 8.2998C23.1398 8.2998 23.0403 8.2998 22.9407 8.1998C22.8411 8.0998 22.8411 7.9998 22.8411 7.7998C22.8411 7.5998 22.8411 7.49981 22.9407 7.39981C23.0403 7.29981 23.1398 7.2998 23.339 7.2998C23.5382 7.2998 23.6378 7.29981 23.7374 7.39981C23.837 7.4998 23.837 7.5998 23.837 7.79979V7.7998V7.79982C23.837 7.99981 23.837 8.09981 23.7374 8.1998C23.6378 8.2998 23.5382 8.2998 23.339 8.2998ZM23.1398 13.6998C23.0403 13.6998 22.9407 13.5998 22.9407 13.4998V9.2998C22.9407 9.1998 23.0403 9.0998 23.1398 9.0998H23.6378C23.7374 9.0998 23.837 9.1998 23.837 9.2998V13.4998C23.837 13.5998 23.7374 13.6998 23.6378 13.6998H23.1398ZM10.4915 13.8004C10.0931 13.8004 9.69472 13.7004 9.49554 13.4004C9.19676 13.2004 9.09717 12.8004 9.09717 12.4004C9.09717 12.0004 9.29635 11.6004 9.59513 11.4004C9.8939 11.1004 10.2923 11.0004 10.8898 11.0004C11.1886 11.0004 11.587 11.1004 11.9853 11.2004L11.9853 11.2004V10.6004C11.9853 10.3004 11.8857 10.0004 11.7861 9.90039C11.6866 9.80039 11.3878 9.70039 10.9894 9.70039C10.591 9.70039 10.1927 9.80039 9.79431 9.90039C9.74452 9.90039 9.69472 9.92539 9.64492 9.95039C9.59513 9.97539 9.54533 10.0004 9.49554 10.0004C9.39594 10.0004 9.39594 9.90039 9.39594 9.80039V9.50039V9.30039L9.49554 9.20039C9.73195 9.20039 9.90601 9.13778 10.1164 9.0621L10.1164 9.06209C10.1719 9.04213 10.2299 9.02126 10.2923 9.00039C10.591 8.90039 10.8898 8.90039 11.1886 8.90039C11.7861 8.90039 12.1845 9.00039 12.4833 9.30039C12.6825 9.60039 12.7821 9.90039 12.7821 10.4004V13.5004C12.7821 13.6004 12.6825 13.7004 12.5829 13.7004H12.1845C12.0849 13.7004 11.9853 13.6004 11.9853 13.5004V13.2004C11.8332 13.3532 11.6229 13.4476 11.4433 13.5283C11.3878 13.5532 11.3352 13.5768 11.2882 13.6004C11.2258 13.6213 11.1678 13.6421 11.1123 13.6621C10.9019 13.7378 10.7279 13.8004 10.4915 13.8004ZM11.2882 13.0004L11.8857 12.7004V11.8004C11.587 11.7004 11.2882 11.7004 10.8898 11.7004H10.8898C10.1927 11.7004 9.8939 12.0004 9.8939 12.5004C9.8939 12.7004 9.99349 12.9004 10.0931 13.0004C10.1927 13.0004 10.2923 13.0254 10.3919 13.0504C10.4915 13.0754 10.591 13.1004 10.6906 13.1004C10.8898 13.1004 11.089 13.1004 11.2882 13.0004ZM15.2719 13.6996H15.0727C15.0727 13.6996 14.9731 13.5996 14.9731 13.4996L13.3796 9.49961V9.39961V9.29961C13.3796 9.19961 13.3796 9.19961 13.4792 9.19961H13.9772H14.1764C14.1764 9.19961 14.276 9.29961 14.276 9.39961L15.4711 12.8996L16.7658 9.29961V9.2996C16.7658 9.19961 16.7658 9.19961 16.8654 9.09961H17.0645H17.5625C17.6621 9.09961 17.6621 9.09961 17.6621 9.19961V9.29961V9.39961L16.0686 13.3996C16.0686 13.4996 15.969 13.5996 15.969 13.5996H15.7698H15.2719V13.6996ZM18.4589 13.4004C18.6581 13.7004 19.0565 13.8004 19.4548 13.8004C19.654 13.8004 19.9528 13.7004 20.2516 13.6004C20.2986 13.5768 20.3512 13.5532 20.4067 13.5283C20.5863 13.4476 20.7965 13.3532 20.9487 13.2004V13.5004C20.9487 13.6004 21.0483 13.7004 21.1479 13.7004H21.5463C21.6459 13.7004 21.7454 13.6004 21.7454 13.5004V10.4004C21.7454 9.90039 21.5463 9.60039 21.2475 9.30039C20.9487 9.00039 20.5503 8.90039 19.9528 8.90039C19.654 8.90039 19.3552 8.90039 19.0565 9.00039C18.7577 9.00039 18.5585 9.10039 18.3593 9.20039L18.2597 9.30039V9.50039V9.80039C18.2597 9.90039 18.2597 10.0004 18.3593 10.0004C18.4091 10.0004 18.4589 9.97539 18.5087 9.95039C18.5585 9.92539 18.6083 9.90039 18.6581 9.90039C19.0565 9.80039 19.4548 9.70039 19.8532 9.70039C20.2516 9.70039 20.5503 9.80039 20.6499 9.90039C20.7495 10.0004 20.8491 10.3004 20.8491 10.6004V11.2004L20.8491 11.2004C20.4507 11.1004 20.0524 11.0004 19.7536 11.0004C19.2556 11.0004 18.7577 11.1004 18.5585 11.4004C18.2597 11.6004 18.0605 12.0004 18.0605 12.4004C18.0605 12.8004 18.1601 13.2004 18.4589 13.4004ZM19.654 13.1004C19.4895 13.1004 19.3854 13.0701 19.2918 13.0428C19.2154 13.0206 19.146 13.0004 19.0565 13.0004C18.9569 12.9004 18.8573 12.7004 18.8573 12.5004C18.8573 12.0004 19.1561 11.7004 19.8532 11.7004C20.2516 11.7004 20.5503 11.7004 20.8491 11.8004V12.7004L20.2516 13.0004C20.0524 13.1004 19.8532 13.1004 19.654 13.1004ZM28.6172 13.8004C28.2188 13.8004 27.8205 13.7004 27.6213 13.4004C27.3225 13.2004 27.2229 12.8004 27.2229 12.4004C27.2229 12.0004 27.4221 11.6004 27.7209 11.4004C28.0196 11.1004 28.418 11.0004 29.0156 11.0004C29.3143 11.0004 29.7127 11.1004 30.111 11.2004L30.1111 11.2004V10.6004C30.1111 10.3004 30.0115 10.0004 29.9119 9.90039C29.8123 9.80039 29.5135 9.70039 29.1151 9.70039C28.7168 9.70039 28.3184 9.80039 27.92 9.90039C27.8702 9.90039 27.8204 9.92539 27.7707 9.95039C27.7209 9.97539 27.6711 10.0004 27.6213 10.0004C27.5217 10.0004 27.5217 9.90039 27.5217 9.80039V9.50039V9.30039L27.6213 9.20039C27.8205 9.10039 28.0196 9.00039 28.3184 9.00039C28.6172 8.90039 28.916 8.90039 29.2147 8.90039C29.8123 8.90039 30.2107 9.00039 30.5094 9.30039C30.8082 9.50039 30.9078 9.90039 30.9078 10.4004V13.5004C30.9078 13.6004 30.8082 13.7004 30.7086 13.7004H30.3102C30.2107 13.7004 30.1111 13.6004 30.1111 13.5004V13.2004C29.9589 13.3532 29.7486 13.4476 29.569 13.5283C29.5135 13.5532 29.4609 13.5768 29.4139 13.6004L29.4139 13.6004C29.1151 13.7004 28.8164 13.8004 28.6172 13.8004ZM28.8164 13.1004C29.0156 13.1004 29.2147 13.1004 29.4139 13.0004L30.0115 12.7004V11.8004C29.7127 11.7004 29.4139 11.7004 29.0156 11.7004C28.3184 11.7004 28.0196 12.0004 28.0196 12.5004C28.0196 12.7004 28.1192 12.9004 28.2188 13.0004C28.3083 13.0004 28.3778 13.0206 28.4542 13.0428C28.5478 13.0701 28.6519 13.1004 28.8164 13.1004ZM32.8997 13.2C33.2981 13.6 33.6965 13.8 34.294 13.8C34.8916 13.8 35.3895 13.5 35.7879 13C36.0867 12.5 36.2859 11.9 36.2859 11.2C36.2859 10.5 36.1863 9.9 35.7879 9.5C35.3895 9.1 34.9912 8.9 34.3936 8.9C33.7961 8.9 33.3977 9.1 32.8997 9.5V7.2C32.8997 7.1 32.8001 7 32.7006 7H32.2026C32.103 7 32.0034 7.1 32.0034 7.2V13.5C32.0034 13.6 32.103 13.7 32.2026 13.7H32.601C32.7006 13.7 32.8001 13.6 32.8001 13.5L32.8997 13.2ZM35.2899 11.3C35.2899 12.4 34.8916 13 34.0948 13C33.6965 13 33.2981 12.9 32.8997 12.5V10C33.2981 9.7 33.6965 9.6 34.0948 9.6C34.4932 9.6 34.792 9.7 34.9912 10C35.1904 10.3 35.2899 10.7 35.2899 11.3ZM38.178 13.7C37.8793 13.7 37.5805 13.6 37.4809 13.4C37.4574 13.3528 37.4283 13.3056 37.3977 13.2557C37.2984 13.0944 37.1821 12.9056 37.1821 12.6V7.2C37.1821 7.1 37.2817 7 37.3813 7H37.8793C37.9789 7 38.0785 7.1 38.0785 7.2V12.6C38.0785 12.7 38.0785 12.8 38.178 12.9C38.2776 13 38.3772 13 38.4768 13H38.5764H38.676H38.7756V13.1V13.4V13.5L38.676 13.6C38.4768 13.7 38.3772 13.7 38.178 13.7ZM39.9706 13.2C40.369 13.6 40.9665 13.8 41.6637 13.8C41.7378 13.8 41.8396 13.8277 41.9484 13.8574C42.1319 13.9073 42.3354 13.9628 42.4604 13.9C42.56 13.85 42.6596 13.825 42.7592 13.8C42.8588 13.775 42.9584 13.75 43.0579 13.7C43.1575 13.7 43.2571 13.6 43.2571 13.6V13.4V13.1C43.2571 13 43.2571 12.9 43.1575 12.9H43.0579H42.9584C42.7592 13 42.4604 13.1 42.3608 13.1H41.8628C41.3649 13.1 41.0661 12.9 40.7673 12.7C40.4686 12.5 40.369 12.1 40.369 11.6H43.1575H43.2571C43.3567 11.6 43.3567 11.6 43.3567 11.5V10.9C43.3567 10.3 43.1575 9.8 42.8588 9.5C42.56 9.2 42.1616 9 41.5641 9C40.8669 9 40.369 9.2 39.9706 9.6C39.5722 10 39.373 10.6 39.373 11.4C39.373 12.2 39.5722 12.8 39.9706 13.2ZM42.4604 10.8V11H40.0702C40.1698 10.6 40.2694 10.2 40.4686 10C40.6677 9.8 40.9665 9.7 41.3649 9.7C41.7633 9.7 41.9624 9.8 42.1616 10C42.3608 10.2 42.4604 10.4 42.4604 10.8ZM47.5396 13.8004C47.1412 13.8004 46.7428 13.7004 46.5436 13.4004C46.3444 13.1004 46.1453 12.8004 46.1453 12.4004C46.1453 12.0004 46.3444 11.6004 46.6432 11.4004C46.942 11.1004 47.3404 11.0004 47.9379 11.0004C48.2367 11.0004 48.635 11.1004 49.0334 11.2004L49.0334 11.2004V10.6004C49.0334 10.3004 48.9338 10.0004 48.8342 9.90039C48.7346 9.80039 48.4359 9.70039 48.0375 9.70039C47.6391 9.70039 47.2408 9.80039 46.8424 9.90039C46.7926 9.90039 46.7428 9.92539 46.693 9.95039C46.6432 9.97539 46.5934 10.0004 46.5436 10.0004C46.444 10.0004 46.444 9.90039 46.444 9.80039V9.50039V9.30039L46.5436 9.20039C46.7428 9.10039 46.942 9.00039 47.2408 9.00039C47.5395 8.90039 47.8383 8.90039 48.1371 8.90039C48.7346 8.90039 49.133 9.00039 49.4318 9.30039C49.7306 9.50039 49.8302 9.90039 49.8302 10.4004V13.5004C49.8302 13.6004 49.7306 13.7004 49.631 13.7004H49.2326C49.133 13.7004 49.0334 13.6004 49.0334 13.5004V13.2004C48.8813 13.3532 48.671 13.4476 48.4914 13.5283C48.4359 13.5532 48.3833 13.5768 48.3363 13.6004C48.1371 13.7004 47.8383 13.8004 47.5396 13.8004ZM47.7387 13.1004C47.9379 13.1004 48.1371 13.1004 48.3363 13.0004L48.9338 12.7004V11.8004C48.6351 11.7004 48.3363 11.7004 47.9379 11.7004C47.2408 11.7004 46.942 12.0004 46.942 12.5004C46.942 12.7004 47.0416 12.9004 47.1412 13.0004C47.2408 13.0004 47.3404 13.0254 47.44 13.0504C47.5395 13.0754 47.6391 13.1004 47.7387 13.1004ZM51.3243 12.3998C51.3243 13.2998 51.7227 13.6998 52.619 13.6998C52.9178 13.6998 53.2166 13.6998 53.4158 13.5998L53.5153 13.4998V13.2998V13.0998V12.9998H53.4158H53.2166H52.8182C52.619 12.9998 52.4198 12.9998 52.3202 12.8998C52.2206 12.7998 52.2206 12.5998 52.2206 12.3998V9.7998H53.4158C53.5153 9.7998 53.6149 9.6998 53.6149 9.5998V9.2998C53.6149 9.1998 53.5153 9.0998 53.4158 9.0998H52.2206V7.9998C52.2206 7.8998 52.1211 7.7998 52.0215 7.7998H51.6231C51.5235 7.7998 51.4239 7.8998 51.4239 7.9998L51.3243 9.0998L50.7268 9.19981C50.6272 9.19981 50.5276 9.2998 50.5276 9.2998V9.39981V9.5998C50.5276 9.6998 50.6272 9.7998 50.7268 9.7998H51.3243V12.3998Z" fill="white"/>
<g clip-path="url(#clip0_4791_64177)">
<path d="M70.1978 21.083V28.0473L64.6665 24.1187L70.1978 21.083Z" fill="#5167AC"/>
<path d="M59.1948 21.083V28.0473L64.7261 24.1187L59.1948 21.083Z" fill="#8FA565"/>
<path d="M64.726 14L57.5889 18.0476L64.726 17.9881V14Z" fill="#FBDC51"/>
<path d="M64.7261 14L71.8037 18.0476L64.7261 17.9881V14Z" fill="#DFB4B3"/>
<path d="M64.726 24.1191L57.5889 29.1191H64.726V24.1191Z" fill="#CAD954"/>
<path d="M64.7261 24.1191L71.8037 29.1191H64.7261V24.1191Z" fill="#6CB1E6"/>
<path d="M57.5889 29.1191H64.726V34.0001L57.5889 29.1191Z" fill="#F5F088"/>
<path d="M71.8037 29.1191H64.7261V34.0001L71.8037 29.1191Z" fill="#ACDAF9"/>
<path d="M57.5889 17.9883H64.726V21.9764L57.5889 17.9883Z" fill="#DF854B"/>
<path d="M71.8632 17.9883H64.7261V21.9764L71.8632 17.9883Z" fill="#D96798"/>
<path d="M71.8036 29.1788V17.9883L64.726 21.9764L57.5889 17.9883V29.1788L59.1947 30.2502V21.0835L64.726 24.1192L70.1977 21.0835V30.2502L71.8036 29.1788Z" fill="white"/>
<path d="M92.7986 25.0717C93.3933 24.8336 93.9286 24.4764 94.345 23.9407C94.8208 23.3455 95.0587 22.5717 95.0587 21.7383C95.0587 21.2026 94.9397 20.6669 94.7613 20.2502C94.5829 19.774 94.2855 19.4169 93.9286 19.0598C93.5718 18.7621 93.096 18.4645 92.5607 18.2859C92.0254 18.1074 91.4306 18.0479 90.7764 18.0479H86.1968V30.2502H87.8026V19.655H90.7764C91.6685 19.655 92.3228 19.8336 92.7391 20.1907C93.1554 20.5479 93.3933 21.0836 93.3933 21.7383C93.3933 22.4526 93.1554 22.9288 92.7391 23.2859C92.2633 23.6431 91.6091 23.8217 90.7764 23.8217H88.8137V25.3693H91.1927L93.4528 30.2502H95.2371L92.7986 25.0717Z" fill="white"/>
<path d="M96.4268 18.1074V19.7146H100.114V30.3098H101.72V19.7146H105.408V18.1074H96.4268Z" fill="white"/>
<path d="M79.5353 18.1074H78.1673L73.4688 30.3098H75.1935L76.6804 26.5003H81.1411L82.628 30.3098H84.2933L79.5353 18.1074ZM77.2157 25.0717L78.881 20.7265L80.5464 25.0717H77.2157Z" fill="white"/>
<path d="M55.1502 25.6073C54.9718 25.1906 54.7339 24.8335 54.4365 24.5359C54.1391 24.2382 53.7822 24.0001 53.3659 23.762C52.9496 23.5835 52.4738 23.4049 51.998 23.3454L49.7974 23.0478C49.5595 22.9882 49.3216 22.9882 49.0837 22.8692C48.9052 22.8097 48.7268 22.6906 48.5484 22.5716C48.4294 22.4525 48.3105 22.2739 48.1915 22.0954C48.132 21.9168 48.0726 21.6787 48.0726 21.3811C48.0726 21.0835 48.132 20.7859 48.251 20.6073C48.3699 20.3692 48.5484 20.1906 48.7268 20.012C48.9647 19.8335 49.2621 19.6549 49.5595 19.5359C49.9163 19.4168 50.2732 19.4168 50.63 19.4168C51.1058 19.4168 51.5816 19.4763 51.9385 19.6549C52.2953 19.7739 52.5927 20.012 52.8306 20.2501C53.0091 20.4287 53.128 20.6073 53.1875 20.8454C53.247 21.0239 53.3659 21.262 53.3659 21.5597L53.4254 21.8573H55.0312L54.9718 21.4406C54.9123 20.9644 54.8528 20.5478 54.6744 20.1906C54.6744 19.9525 54.496 19.5954 54.1986 19.2978C53.8417 18.8811 53.3064 18.5239 52.7117 18.2859C52.1169 18.0478 51.4627 17.9287 50.8085 17.9287C50.2137 17.9287 49.6784 18.0478 49.1431 18.2263C48.6078 18.4049 48.132 18.7025 47.7157 19.0597C47.4183 19.3573 47.121 19.7144 46.883 20.0716C46.6451 20.4882 46.5262 20.9644 46.5262 21.5001C46.5262 21.9763 46.5857 22.4525 46.7641 22.8097C46.9425 23.1668 47.1804 23.5239 47.4778 23.8216C47.7752 24.1192 48.132 24.2978 48.4889 24.4763C48.8458 24.6549 49.2621 24.7144 49.7379 24.7739L51.879 25.0716C52.1764 25.1311 52.4738 25.1906 52.7117 25.3097C52.9496 25.4287 53.128 25.5478 53.3064 25.7263C53.4849 25.9049 53.6038 26.0835 53.6633 26.262C53.7228 26.4406 53.7822 26.6787 53.7822 26.9168C53.7822 27.2144 53.7228 27.512 53.6038 27.6906C53.4849 27.9287 53.3659 28.1073 53.1875 28.2859C52.8901 28.5239 52.5927 28.7025 52.1764 28.8216C51.7601 28.9406 51.2843 29.0001 50.8085 29.0001C50.3921 29.0001 49.9163 28.9406 49.5595 28.762C49.1431 28.643 48.8457 28.4049 48.5484 28.1668C48.3699 27.9882 48.1915 27.7501 48.0726 27.4525C47.9536 27.2144 47.8347 26.9168 47.8347 26.6192L47.7752 26.262H46.1099L46.1693 26.6787C46.2288 27.1549 46.3478 27.6311 46.5262 28.0478C46.7046 28.4644 47.002 28.8216 47.2994 29.1787C47.7157 29.6549 48.251 29.9525 48.8457 30.1906C49.4405 30.4287 50.0947 30.5478 50.8085 30.5478C51.5222 30.5478 52.1764 30.4287 52.7712 30.2501C53.3659 30.0716 53.9012 29.7144 54.3175 29.2978C54.6149 29.0001 54.8528 28.643 55.0312 28.2859C55.2097 27.8692 55.3286 27.393 55.3286 26.8573C55.4476 26.3811 55.3286 25.9644 55.1502 25.6073Z" fill="white"/>
<path d="M121.228 30.3693H122.299L126.997 18.0479H125.808L121.763 28.6431L117.66 18.0479H108.679V19.1788H112.545V30.3693H113.734V19.1788H116.886L121.228 30.3693Z" fill="white"/>
<path d="M70.1978 21.0835V30.2502L71.8037 29.1788V17.9883L64.7261 21.9764V24.1192L70.1978 21.0835Z" fill="white"/>
<path d="M10.0082 23.8218C9.23497 23.5837 9.05655 22.9289 9.05655 22.3932V22.2146C9.05655 21.2027 9.59183 20.667 10.7219 20.667H11.2572C12.1493 20.667 12.6846 21.0241 12.6846 21.9765C12.6846 22.2146 12.5656 22.3932 12.2682 22.3932C11.9709 22.3932 11.8519 22.2146 11.8519 21.9765C11.8519 21.6194 11.614 21.4408 11.2572 21.4408H10.7219C10.1271 21.4408 9.82973 21.6789 9.82973 22.2146V22.3932C9.82973 22.7503 10.0676 22.9884 10.3055 23.0479L11.8519 23.6432C12.5061 23.8813 12.863 24.3575 12.863 25.1313V25.4289C12.863 26.4408 12.3277 27.036 11.1977 27.036H10.4245C9.53235 27.036 8.99707 26.6789 8.99707 25.7265C8.99707 25.4884 9.11602 25.3098 9.4134 25.3098C9.71078 25.3098 9.82973 25.4884 9.82973 25.7265C9.82973 26.0837 10.0676 26.2622 10.4245 26.2622H11.2572C11.8519 26.2622 12.1493 25.9646 12.1493 25.4289V25.1313C12.1493 24.7741 11.9709 24.536 11.733 24.417L10.0082 23.8218Z" fill="white"/>
<path d="M15.7772 22.3926C16.6694 22.3926 17.2047 22.9283 17.2047 23.7616V26.5592C17.2047 26.7973 17.0857 26.9759 16.7883 26.9759H15.1825C14.3498 26.9759 13.874 26.6188 13.874 25.7854V25.1307C13.874 24.2973 14.4093 23.9402 15.1825 23.9402H16.4315V23.7616C16.4315 23.345 16.1936 23.1664 15.8367 23.1664H14.6472C14.4093 23.1664 14.2309 23.0473 14.2309 22.8092C14.2309 22.5711 14.4093 22.4521 14.6472 22.4521H15.7772V22.3926ZM16.4315 26.2021V24.6545H15.1825C14.8256 24.6545 14.6472 24.8331 14.6472 25.1307V25.7854C14.6472 26.0235 14.8256 26.2616 15.1825 26.2616H16.4315V26.2021Z" fill="white"/>
<path d="M22.6763 23.9997C22.6763 23.464 22.4384 23.1664 21.8436 23.1664H21.3678V26.6783C21.3678 26.9164 21.2489 27.095 20.9515 27.095C20.6541 27.095 20.5352 26.9164 20.5352 26.6783V23.1664H19.2267V26.6783C19.2267 26.9164 19.1078 27.095 18.8104 27.095C18.513 27.095 18.394 26.9164 18.394 26.6783V22.8092C18.394 22.5711 18.513 22.3926 18.8104 22.3926H21.8436C22.9142 22.3926 23.4495 22.9878 23.4495 23.9997V26.6783C23.4495 26.9164 23.3305 27.095 23.0332 27.095C22.7358 27.095 22.6168 26.9164 22.6168 26.6783V23.9997H22.6763Z" fill="white"/>
<path d="M25.8881 27.0353C25.0554 27.0353 24.5796 26.7377 24.5796 25.9639C24.5796 25.7258 24.6985 25.5472 24.9959 25.5472C25.2933 25.5472 25.3528 25.7258 25.4123 25.9639C25.4123 26.1425 25.5907 26.3211 25.9475 26.3211H26.6612C27.0776 26.3211 27.1965 26.083 27.1965 25.8449V25.5472C27.1965 25.3092 27.0776 25.2496 26.8991 25.1306L25.5312 24.7734C24.9959 24.5949 24.758 24.2377 24.758 23.702V23.4639C24.758 22.6306 25.2338 22.2734 26.0665 22.2734H26.5423C27.375 22.2734 27.8508 22.5711 27.8508 23.3449C27.8508 23.583 27.7913 23.7615 27.4344 23.7615C27.137 23.7615 27.0776 23.583 27.0181 23.3449C27.0181 23.1663 26.8397 22.9877 26.5423 22.9877H26.0665C25.6502 22.9877 25.5312 23.2258 25.5312 23.4639V23.702C25.5312 23.8806 25.6502 23.9996 25.8286 24.1187L27.1965 24.4758C27.7318 24.6544 28.0292 24.952 28.0292 25.5472V25.8449C28.0292 26.6782 27.5534 27.0353 26.7207 27.0353H25.8881Z" fill="white"/>
<path d="M29.8138 25.3687C29.8138 25.9044 30.0517 26.202 30.6465 26.202H31.717V22.6901C31.717 22.452 31.836 22.2734 32.1334 22.2734C32.4307 22.2734 32.5497 22.452 32.5497 22.6901V26.5592C32.5497 26.7972 32.4307 26.9758 32.1334 26.9758H30.7059C29.5759 26.9758 29.1001 26.3806 29.1001 25.3687V22.6901C29.1001 22.452 29.219 22.2734 29.5164 22.2734C29.8138 22.2734 29.9328 22.452 29.9328 22.6901V25.3687H29.8138Z" fill="white"/>
<path d="M36.4747 23.9997C36.4747 23.464 36.2368 23.1664 35.642 23.1664H34.5714V26.6783C34.5714 26.9164 34.4525 27.095 34.1551 27.095C33.8577 27.095 33.7388 26.9164 33.7388 26.6783V22.8092C33.7388 22.5711 33.8577 22.3926 34.1551 22.3926H35.5825C36.6531 22.3926 37.1884 22.9878 37.1884 23.9997V26.6783C37.1884 26.9164 37.0694 27.095 36.772 27.095C36.4747 27.095 36.3557 26.9164 36.3557 26.6783V23.9997H36.4747Z" fill="white"/>
<path d="M41.8871 27.4521C41.8871 28.4045 41.3518 29.1783 40.2218 29.1783H39.2107C39.0323 29.1783 38.7944 29.0592 38.7944 28.8211C38.7944 28.5831 38.9728 28.464 39.2107 28.464H40.2218C40.8165 28.464 41.1139 28.0473 41.1139 27.5116V27.0354H40.0433C38.9728 27.0354 38.4375 26.4402 38.4375 25.4283V24.1188C38.4375 23.1069 38.9728 22.3926 40.1028 22.3926H41.5302C41.8276 22.3926 41.9466 22.5711 41.9466 22.8092V27.4521H41.8871ZM40.0433 23.1664C39.4486 23.1664 39.2107 23.5831 39.2107 24.1188V25.3688C39.2107 25.9045 39.4486 26.2021 40.0433 26.2021H41.1139V23.1664H40.0433Z" fill="white"/>
</g>
<defs>
<clipPath id="clip0_4791_64177">
<rect width="118" height="20" fill="white" transform="translate(8.99707 14)"/>
</clipPath>
</defs>
</svg>
